<svg width="106" height="106" viewBox="0 0 106 106" fill="none" xmlns="http://www.w3.org/2000/svg">
<path d="M52.9982 3C25.3863 3 3 25.5666 3 53.4009C3 78.1645 20.7171 98.7535 44.0665 103L45.4255 58.0106C45.4255 58.0106 43.0571 58.9275 40.1429 47.5435L34.4963 27.7132C34.4963 27.7132 40.8705 26.2426 42.6932 32.305L44.1521 10.8242C44.1521 10.8242 48.5894 6.86897 49.5347 12.4423L49.6167 9.46147C49.6167 9.46147 51.8033 5.16101 55.809 9.46147L55.3596 17.1635C56.0087 13.3952 57.0075 10.7092 58.5413 11.0076C58.5413 11.0076 61.4555 11.0076 61.2736 15.416L61.0596 18.706L60.8491 21.899C61.3342 18.9973 62.0476 17.2318 63.0963 18.537C63.0963 18.537 65.8286 17.8035 65.8286 22.0248V52.3222C65.8286 52.3222 66.0105 55.9934 62.3686 58.5643L63.5814 102.669C86.1104 97.7755 103 77.5784 103 53.4045C102.996 25.563 80.6101 3 52.9982 3Z" fill="#DBE0D8" stroke="#9AAC87" stroke-width="5" stroke-miterlimit="10"/>
<path d="M48.6608 12.5074L48.7178 30.6333L50.4121 12.4067L48.6608 12.5074Z" fill="#98A985"/>
<path d="M54.4927 16.8757L56.237 17.2856L53.84 30.6329L54.4927 16.8757Z" fill="#98A985"/>
<path d="M65.4365 18.447C65.1047 17.9292 63.9455 17.5481 62.5615 17.5481C62.0871 17.5481 61.6376 17.5948 61.2417 17.6739V18.447H65.4365Z" fill="#98A985" stroke="#9AAC87" stroke-miterlimit="10"/>
<path d="M60.2718 18.5154L62.9363 19.1338L58.8735 30.6329L60.2718 18.5154Z" fill="#98A985"/>
<path d="M74.9604 49.1577C74.9604 49.1577 66.628 51.8581 68.9929 59.0854C68.9929 59.0854 75.4562 58.5353 74.9604 49.1577Z" fill="#41B035"/>
<path d="M68.5039 59.855C68.5039 59.855 69.2672 55.3424 73.7081 51.8582C73.7081 51.8582 68.643 58.5497 69.3207 59.6824L68.5039 59.855Z" fill="#166534"/>
<path d="M65.6542 93.0001C65.6542 93.0001 63.7602 98.07 68.4044 99.6306C68.4044 99.6306 70.088 98.124 66.9954 93.6042C66.9954 93.6042 65.8789 92.3457 66.2035 92.2773C66.2035 92.2809 66.0074 92.2953 65.6542 93.0001Z" fill="#41B035"/>
<path d="M66.125 94.5068C66.125 94.5068 66.5851 97.8041 68.6682 100.152L68.8894 99.9507C68.8894 99.9543 67.5589 98.6922 66.125 94.5068Z" fill="#166534"/>
<path d="M65.6391 85.6253C65.6391 85.6253 63.745 90.6952 68.3892 92.2558C68.3892 92.2558 70.0728 90.7492 66.9803 86.2294C66.9803 86.2294 65.8638 84.9709 66.1884 84.9026C66.1884 84.9026 65.9922 84.9206 65.6391 85.6253Z" fill="#41B035"/>
<path d="M66.1099 87.1321C66.1099 87.1321 66.57 90.4293 68.6531 92.7773L68.8743 92.576C68.8743 92.5796 67.5473 91.3139 66.1099 87.1321Z" fill="#166534"/>
<path d="M76.5469 55.278C76.5469 55.278 70.426 61.8078 76.2437 66.7914C76.2437 66.7914 79.7179 65.4862 78.1235 56.95C78.1235 56.95 77.3067 54.4258 77.831 54.5085C77.8346 54.5085 77.5349 54.4222 76.5469 55.278Z" fill="#41B035"/>
<path d="M76.254 57.8057C76.254 57.8057 74.7666 63.0158 76.2932 67.7226L76.7498 67.5464C76.7498 67.55 75.6226 64.9 76.254 57.8057Z" fill="#166534"/>
<path d="M76.5689 82.1304C76.5689 82.1304 71.9247 84.856 74.5464 89.0234C74.5464 89.0234 76.7972 88.9263 77.2288 83.4572C77.2288 83.4572 77.1539 81.7709 77.4464 81.9255C77.4499 81.9219 77.2858 81.8104 76.5689 82.1304Z" fill="#41B035"/>
<path d="M75.9908 83.6013C75.9908 83.6013 74.2823 86.4527 74.4214 89.5989L74.7174 89.5846C74.721 89.581 74.482 87.7579 75.9908 83.6013Z" fill="#166534"/>
<path d="M70.6659 80.6636C70.6659 80.6636 66.7102 84.3312 70.1594 87.8334C70.1594 87.8334 72.3388 87.2509 71.5934 81.8142C71.5934 81.8142 71.1618 80.1818 71.4792 80.2717C71.4792 80.2681 71.2973 80.1926 70.6659 80.6636Z" fill="#41B035"/>
<path d="M70.4124 82.2207C70.4124 82.2207 69.3495 85.3741 70.1592 88.4161L70.4481 88.337C70.4481 88.3406 69.8274 86.6075 70.4124 82.2207Z" fill="#166534"/>
<path d="M72.0109 66.6295C72.0109 66.6295 60.4075 72.0554 65.7116 82.5117C65.7116 82.5117 71.0656 82.7814 73.2843 69.9124C73.2843 69.9124 73.4733 65.8996 74.1368 66.3311C74.1403 66.3311 73.7765 66.029 72.0109 66.6295Z" fill="#41B035"/>
<path d="M70.3203 69.9844C70.3203 69.9844 65.6476 76.3596 65.2944 83.8458L66.0043 83.8782C66.0043 83.8746 65.8366 79.4986 70.3203 69.9844Z" fill="#166534"/>
<path d="M71.0898 89.2391C71.0898 89.2391 67.5692 93.331 71.3859 96.4197C71.3859 96.4197 73.4832 95.5927 72.1385 90.2747C72.1385 90.2747 71.525 88.7034 71.8531 88.7537C71.8567 88.7537 71.6641 88.7034 71.0898 89.2391Z" fill="#41B035"/>
<path d="M71.0145 90.8176C71.0145 90.8176 70.3118 94.0717 71.4568 97.0022L71.7351 96.8908C71.7315 96.8908 70.9218 95.2403 71.0145 90.8176Z" fill="#166534"/>
<path d="M71.176 60.3873C71.176 60.3873 64.3952 61.6962 65.8184 67.87C65.8184 67.87 68.5864 68.7186 71.4186 62.2751C71.4186 62.2751 72.0392 60.2003 72.3317 60.5132C72.3281 60.5096 72.1783 60.3046 71.176 60.3873Z" fill="#41B035"/>
<path d="M69.8559 61.9155C69.8559 61.9155 66.5815 64.6375 65.4258 68.51L65.7932 68.6215C65.7932 68.6215 66.2747 66.3059 69.8559 61.9155Z" fill="#166534"/>
<path d="M87.6256 84.3383C87.6256 84.3383 82.3037 85.1042 83.1812 89.9584C83.1812 89.9584 85.3035 90.7207 87.7433 85.8161C87.7433 85.8161 88.3034 84.2232 88.5174 84.4785C88.5174 84.4785 88.4068 84.3131 87.6256 84.3383Z" fill="#41B035"/>
<path d="M86.5418 85.4817C86.5418 85.4817 83.8951 87.4773 82.8535 90.4438L83.1353 90.5444C83.1353 90.5408 83.5919 88.761 86.5418 85.4817Z" fill="#166534"/>
<path d="M81.295 85.604C81.295 85.604 76.4439 87.9376 78.7197 92.3063C78.7197 92.3063 80.9704 92.3962 81.8443 86.9775C81.8443 86.9775 81.905 85.2911 82.1868 85.4673C82.1868 85.4673 82.0334 85.3451 81.295 85.604Z" fill="#41B035"/>
<path d="M80.6 87.0208C80.6 87.0208 78.6668 89.7211 78.5526 92.8674L78.8487 92.8782C78.8522 92.8782 78.7595 91.0371 80.6 87.0208Z" fill="#166534"/>
<path d="M76.4614 89.3868C76.4614 89.3868 71.8208 92.1159 74.4461 96.2797C74.4461 96.2797 76.6968 96.179 77.1213 90.71C77.1213 90.71 77.0428 89.0236 77.3389 89.1782C77.3389 89.1782 77.1784 89.0668 76.4614 89.3868Z" fill="#41B035"/>
<path d="M75.8838 90.8572C75.8838 90.8572 74.1788 93.7086 74.3215 96.8548L74.6175 96.8404C74.6211 96.8404 74.3821 95.0138 75.8838 90.8572Z" fill="#166534"/>
<path d="M86.8303 64.4939C86.8303 64.4939 71.1071 66.4428 73.4149 80.7968C73.4149 80.7968 79.625 83.1699 87.0942 68.8519C87.0942 68.8519 88.8349 64.1954 89.452 64.9577C89.452 64.9577 89.1417 64.4651 86.8303 64.4939Z" fill="#41B035"/>
<path d="M83.5737 67.7981C83.5737 67.7981 75.6621 73.5225 72.4233 82.2061L73.2473 82.5153C73.2473 82.5153 74.7026 77.2907 83.5737 67.7981Z" fill="#166534"/>
<path d="M93.5331 74.486C93.5331 74.486 80.8704 72.6701 79.6719 84.349C79.6719 84.349 84.0164 87.5168 92.8304 77.9378C92.8304 77.9378 95.1596 74.6765 95.4807 75.4029C95.4771 75.4064 95.338 74.9534 93.5331 74.486Z" fill="#41B035"/>
<path d="M90.3053 76.3704C90.3053 76.3704 82.9431 79.1534 78.6021 85.241L79.1799 85.6545C79.1799 85.6545 81.4057 81.8934 90.3053 76.3704Z" fill="#166534"/>
<path d="M85.9181 54.9689C85.9181 54.9689 77.4822 57.867 80.3251 65.0117C80.3251 65.0117 84.0027 65.4899 86.5423 57.191C86.5423 57.191 86.9882 54.5734 87.4127 54.8934C87.4127 54.8934 87.1844 54.674 85.9181 54.9689Z" fill="#41B035"/>
<path d="M84.4881 57.0688C84.4881 57.0688 80.7642 60.981 79.9331 65.8603L80.4182 65.9215C80.4218 65.9179 80.6501 63.0449 84.4881 57.0688Z" fill="#166534"/>
<path d="M101.27 58.2085C101.27 58.2085 95.0738 59.7115 96.4007 65.0907C96.4007 65.0907 101.123 65.0475 101.27 58.2085Z" fill="#41B035"/>
<path d="M96.0049 65.6265C96.0049 65.6265 96.8039 62.3904 100.214 60.1035C100.214 60.1035 96.1761 64.6844 96.6077 65.5438L96.0049 65.6265Z" fill="#166534"/>
<path d="M93.8905 58.0105C93.8905 58.0105 86.7351 56.7808 86.2144 63.3573C86.2144 63.3573 91.2723 65.5184 93.8905 58.0105Z" fill="#41B035"/>
<path d="M85.6006 63.7637C85.6006 63.7637 87.6195 60.5527 92.0853 59.6143C92.0853 59.6143 86.1249 62.8 86.2712 63.9543L85.6006 63.7637Z" fill="#166534"/>
<path d="M98.6378 66.2844C98.6378 66.2844 92.4384 67.7694 93.7475 73.1522C93.7475 73.1486 98.4701 73.1198 98.6378 66.2844Z" fill="#41B035"/>
<path d="M93.3516 73.6807C93.3516 73.6807 94.1577 70.4482 97.5784 68.1721C97.5784 68.1721 93.5263 72.7387 93.9544 73.6016L93.3516 73.6807Z" fill="#166534"/>
<path d="M94.1932 62.4692C94.1932 62.4692 86.0534 66.162 89.2672 73.2168C89.2672 73.2168 95.7555 71.9187 94.1932 62.4692Z" fill="#41B035"/>
<path d="M88.861 74.0544C88.861 74.0544 89.1249 69.3908 93.2305 65.3528C93.2305 65.3528 88.8538 72.7132 89.6671 73.7847L88.861 74.0544Z" fill="#166534"/>
<path d="M73.9862 39.7805C73.9862 39.7805 64.7371 41.9991 68.1114 50.2872C68.1114 50.2872 75.4309 50.2872 73.9862 39.7805Z" fill="#41B035"/>
<path d="M67.6305 51.0998C67.6305 51.0998 68.0799 46.1377 72.8169 42.675C72.8169 42.675 67.6662 49.6543 68.5472 50.9847L67.6305 51.0998Z" fill="#166534"/>
<path d="M87.805 34.4548C87.805 34.4548 71.6288 41.9555 80.0254 54.5189C80.0254 54.5189 87.7051 54.4901 89.8845 38.4245C89.8845 38.4245 89.8453 33.4481 90.8298 33.9371C90.8298 33.9407 90.2876 33.5919 87.805 34.4548Z" fill="#41B035"/>
<path d="M85.6467 38.7158C85.6467 38.7158 79.458 46.9176 79.5329 56.1981L80.5495 56.1873C80.5495 56.1873 79.9716 50.7866 85.6467 38.7158Z" fill="#166534"/>
<path d="M96.8861 40.2914C96.8861 40.2914 84.9474 44.9227 89.5452 55.7134C89.5452 55.7134 94.8707 56.3462 97.9419 43.6534C97.9419 43.6534 98.3985 39.6622 99.0334 40.1368C99.0298 40.1368 98.6909 39.8132 96.8861 40.2914Z" fill="#41B035"/>
<path d="M94.9783 43.5205C94.9783 43.5205 89.8918 49.5685 89.0428 57.0116L89.7455 57.0907C89.7455 57.0907 89.8739 52.7111 94.9783 43.5205Z" fill="#166534"/>
<path d="M100.258 50.2906C100.258 50.2906 94.233 51.4412 95.2282 58.7369C95.2282 58.7369 97.6288 59.8839 100.393 52.5091C100.393 52.5091 101.028 50.118 101.271 50.4991C101.271 50.5027 101.146 50.251 100.258 50.2906Z" fill="#41B035"/>
<path d="M99.0336 52.0059C99.0336 52.0059 96.0374 55.0047 94.8567 59.4633L95.1742 59.6108C95.1742 59.6144 95.6949 56.9392 99.0336 52.0059Z" fill="#166534"/>
<path d="M42.7006 5.4816C42.7006 5.4816 46.0963 3.73409 48.3649 7.70015C48.3649 7.70015 47.6194 9.18517 43.4746 6.62503C43.4746 6.62503 42.2582 5.69375 42.2832 5.97421C42.2832 5.97421 42.2511 5.80162 42.7006 5.4816Z" fill="#41B035"/>
<path d="M43.9526 5.85596C43.9526 5.85596 46.5565 6.17957 48.8251 7.9163L48.7252 8.11046C48.7217 8.11046 47.4554 6.99579 43.9526 5.85596Z" fill="#166534"/>
<path d="M74.0154 29.0117C74.0154 29.0117 64.7662 31.2303 68.1406 39.5184C68.1406 39.5148 75.46 39.5184 74.0154 29.0117Z" fill="#41B035"/>
<path d="M67.6552 40.3271C67.6552 40.3271 68.1046 35.365 72.8415 31.9023C72.8415 31.9023 67.6908 38.8816 68.5719 40.212L67.6552 40.3271Z" fill="#166534"/>
<path d="M77.4995 42.6753C77.4995 42.6753 73.0693 43.7396 74.6852 47.7057C74.6888 47.7057 78.1915 47.7057 77.4995 42.6753Z" fill="#41B035"/>
<path d="M74.457 48.0944C74.457 48.0944 74.6711 45.7177 76.9396 44.0601C76.9396 44.0601 74.4749 47.4005 74.8958 48.0369L74.457 48.0944Z" fill="#166534"/>
<path d="M85.8997 23.1863C85.8997 23.1863 72.4201 27.7312 76.0763 39.3633C76.0763 39.3633 86.5025 38.335 85.8997 23.1863Z" fill="#41B035"/>
<path d="M75.2734 40.6219C75.2734 40.6219 76.6004 33.3083 83.827 27.5803C83.827 27.5803 75.5267 38.5041 76.5932 40.3235L75.2734 40.6219Z" fill="#166534"/>
<path d="M74.1146 9.40039C74.1146 9.40039 64.1556 11.529 68.0365 20.5399C68.0365 20.5399 75.9658 20.7448 74.1146 9.40039Z" fill="#41B035"/>
<path d="M67.5338 21.4031C67.5338 21.4031 67.8834 16.0779 72.9199 12.4822C72.9199 12.4822 67.5338 19.8498 68.5183 21.3024L67.5338 21.4031Z" fill="#166534"/>
<path d="M73.2582 20.6367C73.2582 20.6367 65.3859 22.5245 68.2573 29.5792C68.2573 29.5792 74.4888 29.5792 73.2582 20.6367Z" fill="#41B035"/>
<path d="M67.8469 30.2696C67.8469 30.2696 68.2286 26.0447 72.2628 23.0962C72.2628 23.0962 67.879 29.0363 68.6281 30.1689L67.8469 30.2696Z" fill="#166534"/>
<path d="M82.4473 14.6467C82.4473 14.6467 71.2149 17.3435 75.3133 27.4043C75.3133 27.4043 84.2022 27.4079 82.4473 14.6467Z" fill="#41B035"/>
<path d="M74.7246 28.393C74.7246 28.393 75.2704 22.3666 81.0239 18.1597C81.0239 18.1597 74.771 26.6347 75.8375 28.2492L74.7246 28.393Z" fill="#166534"/>
<path d="M96.511 31.9712C96.511 31.9712 88.603 33.8697 91.4852 40.9569C91.4852 40.9569 97.7452 40.9568 96.511 31.9712Z" fill="#41B035"/>
<path d="M91.0713 41.6508C91.0713 41.6508 91.453 37.4079 95.505 34.4451C95.505 34.4451 91.0998 40.4139 91.8525 41.5502L91.0713 41.6508Z" fill="#166534"/>
<path d="M91.2436 24.7537C91.2436 24.7537 83.785 25.6778 87.3377 32.6534C87.3377 32.657 93.4016 33.3366 91.2436 24.7537Z" fill="#41B035"/>
<path d="M87.0099 33.2644C87.0099 33.2644 86.9279 29.3163 90.5377 26.9719C90.5377 26.9719 86.91 32.1066 87.759 33.2572L87.0099 33.2644Z" fill="#166534"/>
<path d="M86.0283 18.3179C86.0283 18.3179 81.5982 19.3822 83.214 23.3483C83.214 23.3483 86.7203 23.3483 86.0283 18.3179Z" fill="#41B035"/>
<path d="M82.9824 23.7365C82.9824 23.7365 83.1964 21.3598 85.465 19.7021C85.465 19.7021 83.0002 23.0426 83.4212 23.679L82.9824 23.7365Z" fill="#166534"/>
<path d="M88.8213 21.7297C88.8213 21.7297 85.5433 22.5172 86.7382 25.4513C86.7382 25.4513 89.3314 25.4549 88.8213 21.7297Z" fill="#41B035"/>
<path d="M86.5669 25.743C86.5669 25.743 86.7238 23.9847 88.4039 22.7585C88.4039 22.7585 86.5776 25.2324 86.8915 25.7034L86.5669 25.743Z" fill="#166534"/>
<path d="M66.0185 6.96265C66.0185 6.96265 60.1151 10.9215 64.7022 15.8117C64.7022 15.8117 69.8423 13.9023 66.0185 6.96265Z" fill="#41B035"/>
<path d="M64.577 16.5022C64.577 16.5022 63.5639 12.9316 65.9645 9.28198C65.9645 9.28198 64.2167 15.4846 65.1869 16.1821L64.577 16.5022Z" fill="#166534"/>
<path d="M63.9316 6.02039C63.9316 6.02039 59.4051 4.06074 58.3243 8.6093C58.3243 8.6057 61.3777 10.8998 63.9316 6.02039Z" fill="#41B035"/>
<path d="M57.8784 8.79595C57.8784 8.79595 59.5549 6.84348 62.5726 6.86865C62.5726 6.86865 58.3279 8.19906 58.2922 9.03326L57.8784 8.79595Z" fill="#166534"/>
<path d="M58.8301 4.98836C58.8301 4.98836 55.6092 3.23006 54.5034 6.52372C54.5034 6.52372 56.6115 8.42944 58.8301 4.98836Z" fill="#41B035"/>
<path d="M54.1572 6.6351C54.1572 6.6351 55.5305 5.30469 57.7634 5.52763C57.7634 5.52763 54.5282 6.22519 54.4497 6.84005L54.1572 6.6351Z" fill="#166534"/>
<path d="M48.875 4.54988C48.875 4.54988 52.096 2.79158 53.2017 6.08524C53.2053 6.08524 51.0937 7.99097 48.875 4.54988Z" fill="#41B035"/>
<path d="M53.5476 6.19662C53.5476 6.19662 52.1743 4.86622 49.9414 5.08915C49.9414 5.08915 53.1767 5.78671 53.2551 6.40158L53.5476 6.19662Z" fill="#166534"/>
<path d="M47.6618 5.68937C47.6618 5.68937 49.1065 4.94506 50.0767 6.63504C50.0767 6.63504 49.7592 7.26789 47.9936 6.17839C47.9936 6.17839 47.4764 5.78286 47.4871 5.90152C47.4835 5.89792 47.4692 5.82601 47.6618 5.68937Z" fill="#41B035"/>
<path d="M48.1934 5.8479C48.1934 5.8479 49.3027 5.98453 50.2693 6.72525L50.2265 6.80795C50.2265 6.80795 49.6879 6.33332 48.1934 5.8479Z" fill="#166534"/>
<path d="M22.7754 89.9979C22.7754 89.9979 26.428 89.7211 26.1034 93.1837C26.1034 93.1837 23.4032 94.0539 22.7754 89.9979Z" fill="#41B035"/>
<path d="M26.3707 93.4282C26.3707 93.4282 25.6573 91.6483 23.5278 90.9292C23.5278 90.9292 26.1959 92.896 26.0211 93.4929L26.3707 93.4282Z" fill="#166534"/>
<path d="M16.8569 84.8849C16.8569 84.8849 23.7804 81.1059 26.156 88.1858C26.1525 88.1894 21.6224 92.2813 16.8569 84.8849Z" fill="#41B035"/>
<path d="M26.8907 88.4266C26.8907 88.4266 23.9408 85.5644 19.1396 86.0427C19.1396 86.0427 26.0881 87.5385 26.2593 88.8653L26.8907 88.4266Z" fill="#166534"/>
<path d="M38.27 84.493C38.27 84.493 43.781 84.3564 43.0284 89.5342C43.0284 89.5342 38.9085 90.6345 38.27 84.493Z" fill="#41B035"/>
<path d="M43.4139 89.9225C43.4139 89.9225 42.4758 87.1897 39.3297 85.9492C39.3297 85.9492 43.1927 89.1134 42.8824 89.9944L43.4139 89.9225Z" fill="#166534"/>
<path d="M29.6064 95.4993C29.6064 95.4993 32.8274 93.741 33.9332 97.0347C33.9332 97.0383 31.8251 98.9404 29.6064 95.4993Z" fill="#41B035"/>
<path d="M34.2758 97.15C34.2758 97.15 32.9025 95.8196 30.6696 96.0425C30.6696 96.0425 33.9048 96.7401 33.9833 97.355L34.2758 97.15Z" fill="#166534"/>
<path d="M37.5488 88.9805C37.5488 88.9805 43.709 89.4443 42.3 95.1363C42.3 95.1363 37.5845 95.9022 37.5488 88.9805Z" fill="#41B035"/>
<path d="M42.6855 95.6109C42.6855 95.6109 41.94 92.4611 38.5728 90.7244C38.5728 90.7244 42.5321 94.6832 42.0862 95.6325L42.6855 95.6109Z" fill="#166534"/>
<path d="M34.2754 94.8018C34.2754 94.8018 41.256 92.7631 42.0193 99.62C42.0193 99.6164 37.1361 102.414 34.2754 94.8018Z" fill="#41B035"/>
<path d="M42.6403 99.9799C42.6403 99.9799 40.5358 96.8156 36.1163 96.2979C36.1163 96.2979 42.091 99.0234 41.9911 100.25L42.6403 99.9799Z" fill="#166534"/>
<path d="M33.3682 74.0546C33.3682 74.0546 43.6089 73.7993 42.2107 83.425C42.2107 83.425 34.556 85.4674 33.3682 74.0546Z" fill="#41B035"/>
<path d="M42.9239 84.1405C42.9239 84.1405 41.1832 79.067 35.3369 76.7585C35.3369 76.7585 42.5137 82.6375 41.9358 84.2736L42.9239 84.1405Z" fill="#166534"/>
<path d="M38.1157 70.1208C38.1157 70.1208 44.2759 70.5847 42.8669 76.2767C42.8669 76.2767 38.1514 77.0426 38.1157 70.1208Z" fill="#41B035"/>
<path d="M43.2524 76.7513C43.2524 76.7513 42.5069 73.6015 39.1396 71.8647C39.1396 71.8647 43.099 75.8236 42.6531 76.7729L43.2524 76.7513Z" fill="#166534"/>
<path d="M34.5176 63.5049C34.5176 63.5049 42.6467 61.6387 43.064 69.5457C43.064 69.5457 37.2855 72.4186 34.5176 63.5049Z" fill="#41B035"/>
<path d="M43.7488 70.0021C43.7488 70.0021 41.548 66.2374 36.5186 65.3457C36.5186 65.3457 43.1817 68.8695 42.9819 70.2682L43.7488 70.0021Z" fill="#166534"/>
<path d="M21.873 76.9097C21.873 76.9097 36.0161 73.4542 36.9399 87.2401C36.9399 87.2401 26.9239 92.3964 21.873 76.9097Z" fill="#41B035"/>
<path d="M38.149 88.0204C38.149 88.0204 34.2182 81.5014 25.4185 80.0703C25.4185 80.0703 37.1324 86.0571 36.8221 88.5058L38.149 88.0204Z" fill="#166534"/>
<path d="M26.0107 90.0804C26.0107 90.0804 33.0127 85.4312 36.1766 92.7268C36.1766 92.7268 31.7357 97.4876 26.0107 90.0804Z" fill="#41B035"/>
<path d="M36.9794 92.9137C36.9794 92.9137 33.5907 90.1486 28.5399 91.0978C28.5399 91.0978 36.0484 92.0471 36.3516 93.435L36.9794 92.9137Z" fill="#166534"/>
<path d="M26.967 92.7231C26.967 92.7231 29.4852 93.2014 28.6434 95.4811C28.6434 95.4811 26.6673 95.5781 26.967 92.7231Z" fill="#41B035"/>
<path d="M28.7822 95.6934C28.7822 95.6934 28.6182 94.3594 27.3091 93.4893C27.3091 93.4893 28.7608 95.3051 28.5361 95.6754L28.7822 95.6934Z" fill="#166534"/>
<path d="M36.1982 55.4795C36.1982 55.4795 44.5307 55.7312 42.9684 63.4871C42.9684 63.4871 36.6584 64.8067 36.1982 55.4795Z" fill="#41B035"/>
<path d="M43.5178 64.1022C43.5178 64.1022 42.3265 59.9024 37.6787 57.7629C37.6787 57.7629 43.2503 62.8581 42.7081 64.1633L43.5178 64.1022Z" fill="#166534"/>
<path d="M19.8901 60.9446C19.8901 60.9446 34.4255 61.6242 31.4792 75.1188C31.4792 75.1188 20.4287 77.2367 19.8901 60.9446Z" fill="#41B035"/>
<path d="M32.4205 76.2084C32.4205 76.2084 30.4587 68.8408 22.4116 64.979C22.4116 64.979 31.9925 74.0366 31.0116 76.2983L32.4205 76.2084Z" fill="#166534"/>
<path d="M32.5056 67.1689C32.5056 67.1689 37.9809 67.7694 36.5541 72.7962C36.5576 72.7962 32.3343 73.3356 32.5056 67.1689Z" fill="#41B035"/>
<path d="M36.8858 73.231C36.8858 73.231 36.3151 70.4012 33.3652 68.7507C33.3652 68.7507 36.7753 72.3968 36.3508 73.231H36.8858Z" fill="#166534"/>
<path d="M20.8213 44.3579C20.8213 44.3579 37.1865 45.1238 33.8693 60.3156C33.8693 60.3156 21.4277 62.6996 20.8213 44.3579Z" fill="#41B035"/>
<path d="M34.9284 61.5419C34.9284 61.5419 32.7204 53.2466 23.6567 48.8994C23.6567 48.8994 34.4433 59.0968 33.3375 61.6426L34.9284 61.5419Z" fill="#166534"/>
<path d="M29.146 61.2935C29.146 61.2935 34.7247 60.8692 34.2254 66.1549C34.2218 66.1549 30.1055 67.4817 29.146 61.2935Z" fill="#41B035"/>
<path d="M34.6314 66.5252C34.6314 66.5252 33.5435 63.8069 30.2904 62.7102C30.2904 62.7102 34.3639 65.7162 34.0964 66.6259L34.6314 66.5252Z" fill="#166534"/>
<path d="M8.28955 67.532C8.28955 67.532 22.825 68.2116 19.8786 81.7062C19.8786 81.7062 8.82816 83.8241 8.28955 67.532Z" fill="#41B035"/>
<path d="M20.82 82.7958C20.82 82.7958 18.8581 75.4282 10.811 71.5664C10.811 71.5664 20.3919 80.624 19.411 82.8857L20.82 82.7958Z" fill="#166534"/>
<path d="M19.1979 70.29C19.1979 70.29 24.6732 70.8905 23.2464 75.9173C23.25 75.9209 19.0267 76.4603 19.1979 70.29Z" fill="#41B035"/>
<path d="M23.5782 76.3523C23.5782 76.3523 23.0075 73.5225 20.0576 71.8721C20.0576 71.8721 23.4676 75.5181 23.0432 76.3523H23.5782Z" fill="#166534"/>
<path d="M33.2732 45.4111C33.2732 45.4111 41.4558 47.022 38.6629 54.422C38.6629 54.422 32.2245 54.6916 33.2732 45.4111Z" fill="#41B035"/>
<path d="M39.1048 55.1198C39.1048 55.1198 38.6054 50.7798 34.3643 47.9104C34.3643 47.9104 39.0406 53.8505 38.2986 55.0515L39.1048 55.1198Z" fill="#166534"/>
<path d="M5.09668 55.4757C5.09668 55.4757 19.5536 53.8037 18.7831 67.6004C18.7867 67.6004 8.21421 71.473 5.09668 55.4757Z" fill="#41B035"/>
<path d="M19.8889 68.5245C19.8889 68.5245 16.7857 61.5668 8.22852 59.0498C8.22852 59.0498 19.122 66.4462 18.5121 68.8373L19.8889 68.5245Z" fill="#166534"/>
<path d="M13.2192 49.7043C13.2192 49.7043 23.46 49.449 22.0618 59.0746C22.0618 59.0746 14.407 61.117 13.2192 49.7043Z" fill="#41B035"/>
<path d="M22.7749 59.7902C22.7749 59.7902 21.0343 54.7166 15.188 52.4082C15.188 52.4082 22.3647 58.2872 21.7869 59.9232L22.7749 59.7902Z" fill="#166534"/>
<path d="M26.2705 59.4128C26.2705 59.4128 29.4416 60.0133 28.3822 62.8863C28.3822 62.8863 25.8924 63.0085 26.2705 59.4128Z" fill="#41B035"/>
<path d="M28.557 63.156C28.557 63.156 28.3501 61.4768 26.7021 60.3801C26.7021 60.3801 28.5284 62.667 28.2466 63.1344L28.557 63.156Z" fill="#166534"/>
<path d="M23.6778 57.6689C23.6778 57.6689 26.7097 58.7872 25.1938 61.4444C25.1938 61.4444 22.7147 61.1496 23.6778 57.6689Z" fill="#41B035"/>
<path d="M25.3222 61.7355C25.3222 61.7355 25.3935 60.0455 23.9453 58.6899C23.9453 58.6899 25.3757 61.2501 25.019 61.66L25.3222 61.7355Z" fill="#166534"/>
<path d="M11.4079 37.1445C11.4079 37.1445 20.6428 38.2952 19.8474 49.4454C19.8474 49.4454 16.3196 51.4195 11.4186 40.5209C11.4186 40.5209 10.2272 36.9576 9.89551 37.5616C9.89907 37.5652 10.0632 37.1733 11.4079 37.1445Z" fill="#41B035"/>
<path d="M13.4341 39.6257C13.4341 39.6257 18.2638 43.8723 20.4824 50.5135L20.0151 50.7688C20.0116 50.7724 18.9665 46.7668 13.4341 39.6257Z" fill="#166534"/>
<path d="M8.46053 49.3772C8.46053 49.3772 12.9799 49.8914 12.6446 55.346C12.6446 55.346 10.9289 56.3277 8.48193 51.0276C8.48193 51.0276 7.88268 49.2945 7.72217 49.5893C7.72573 49.5893 7.80421 49.3988 8.46053 49.3772Z" fill="#41B035"/>
<path d="M9.4624 50.5781C9.4624 50.5781 11.8451 52.6277 12.9616 55.8638L12.7333 55.9933C12.7333 55.9933 12.2018 54.0408 9.4624 50.5781Z" fill="#166534"/>
<path d="M6.91638 40.7905C6.91638 40.7905 14.0289 42.1929 11.6034 48.6256C11.6034 48.622 6.0068 48.8557 6.91638 40.7905Z" fill="#41B035"/>
<path d="M11.9885 49.2297C11.9885 49.2297 11.5533 45.4542 7.86865 42.9624C7.86865 42.9624 11.935 48.1294 11.2894 49.1722L11.9885 49.2297Z" fill="#166534"/>
<path d="M4.88281 51.1212C4.88281 51.1212 8.81361 50.8227 8.46048 54.5479C8.46048 54.5479 5.56054 55.4828 4.88281 51.1212Z" fill="#41B035"/>
<path d="M8.74976 54.8105C8.74976 54.8105 7.98287 52.894 5.69287 52.1245C5.69287 52.1245 8.56428 54.2424 8.37523 54.8824L8.74976 54.8105Z" fill="#166534"/>
<path d="M4.54836 47.0259C4.54836 47.0259 7.7194 47.6264 6.66001 50.4993C6.66001 50.4993 4.17026 50.6216 4.54836 47.0259Z" fill="#41B035"/>
<path d="M6.83481 50.769C6.83481 50.769 6.62792 49.0899 4.97998 47.9932C4.97998 47.9932 6.80627 50.28 6.52448 50.7475L6.83481 50.769Z" fill="#166534"/>
<path d="M23.3531 28.3352C23.3531 28.3352 34.243 32.0172 30.5584 45.3033C30.5584 45.3033 25.8107 46.8171 22.5469 32.4199C22.5469 32.4199 21.9762 27.8174 21.4269 28.4647C21.4233 28.4683 21.7158 28.0368 23.3531 28.3352Z" fill="#41B035"/>
<path d="M25.1935 31.8372C25.1935 31.8372 29.9982 38.1692 31.0576 46.7521L30.4298 46.9463C30.4334 46.9463 30.1409 41.844 25.1935 31.8372Z" fill="#166534"/>
<path d="M16.6369 32.0534C16.6369 32.0534 24.2988 33.6355 22.897 42.9268C22.897 42.9268 19.8115 44.3435 16.4265 34.8832C16.4265 34.8832 15.6632 31.8197 15.3457 32.3015C15.3457 32.3051 15.5062 31.9887 16.6369 32.0534Z" fill="#41B035"/>
<path d="M18.1675 34.2686C18.1675 34.2686 21.9342 38.1519 23.3539 43.8655L22.9437 44.0489C22.9472 44.0489 22.3337 40.6222 18.1675 34.2686Z" fill="#166534"/>
<path d="M32.4837 38.4751C32.4837 38.4751 38.4833 39.6581 36.4359 45.084C36.4359 45.084 31.7168 45.2782 32.4837 38.4751Z" fill="#41B035"/>
<path d="M36.7637 45.5948C36.7637 45.5948 36.3963 42.4126 33.2894 40.3091C33.2894 40.3091 36.7209 44.6671 36.1751 45.5444L36.7637 45.5948Z" fill="#166534"/>
<path d="M31.746 32.4561C31.746 32.4561 36.4865 33.9734 34.3321 38.166C34.3321 38.1696 30.4976 37.8856 31.746 32.4561Z" fill="#41B035"/>
<path d="M34.5462 38.6118C34.5462 38.6118 34.5427 36.005 32.2241 34.0129C32.2241 34.0129 34.5962 37.8567 34.0718 38.5148L34.5462 38.6118Z" fill="#166534"/>
<path d="M25.6715 24.1067C25.6715 24.1067 34.0075 24.2074 32.5807 31.9921C32.5843 31.9957 26.2993 33.4267 25.6715 24.1067Z" fill="#41B035"/>
<path d="M33.1448 32.5995C33.1448 32.5995 31.8785 28.4213 27.1951 26.3682C27.1951 26.3682 32.8558 31.3626 32.3386 32.6786L33.1448 32.5995Z" fill="#166534"/>
<path d="M10.5195 29.7056C10.5195 29.7056 16.5192 30.8886 14.4717 36.3145C14.4717 36.3145 9.74908 36.5086 10.5195 29.7056Z" fill="#41B035"/>
<path d="M14.7965 36.8252C14.7965 36.8252 14.4291 33.643 11.3223 31.5396C11.3223 31.5396 14.7537 35.8975 14.2079 36.7749L14.7965 36.8252Z" fill="#166534"/>
<path d="M14.9841 23.1499C14.9841 23.1499 22.8671 24.7032 20.1776 31.8335C20.1776 31.8335 13.9747 32.0924 14.9841 23.1499Z" fill="#41B035"/>
<path d="M20.6019 32.5057C20.6019 32.5057 20.1203 28.3239 16.0361 25.5588C16.0361 25.5588 20.5412 31.2832 19.8243 32.441L20.6019 32.5057Z" fill="#166534"/>
<path d="M7.23072 36.7925C7.23072 36.7925 11.1401 37.2959 10.0522 40.8736C10.0522 40.8736 7.02383 41.2008 7.23072 36.7925Z" fill="#41B035"/>
<path d="M10.2798 41.1861C10.2798 41.1861 9.91239 39.1545 7.82214 37.9355C7.82214 37.9355 10.212 40.5928 9.89812 41.1789L10.2798 41.1861Z" fill="#166534"/>
<path d="M8.28572 33.5955C8.28572 33.5955 11.3141 33.9874 10.4687 36.7561C10.4687 36.7561 8.1252 37.0114 8.28572 33.5955Z" fill="#41B035"/>
<path d="M10.6474 37.0009C10.6474 37.0009 10.3621 35.426 8.74268 34.4839C8.74268 34.4839 10.5939 36.5406 10.3478 36.9973L10.6474 37.0009Z" fill="#166534"/>
<path d="M35.3913 14.0139C35.3913 14.0139 45.0792 17.6384 40.196 26.1278C40.196 26.1278 32.2666 25.1534 35.3913 14.0139Z" fill="#41B035"/>
<path d="M40.5994 27.0699C40.5994 27.0699 40.8526 21.6584 36.2334 17.2932C36.2334 17.2932 40.7741 25.5058 39.6256 26.8218L40.5994 27.0699Z" fill="#166534"/>
<path d="M27.3236 17.447C27.3236 17.447 35.6596 17.5477 34.2328 25.3324C34.2364 25.3324 27.9514 26.7635 27.3236 17.447Z" fill="#41B035"/>
<path d="M34.7969 25.9364C34.7969 25.9364 33.5306 21.7582 28.8472 19.7051C28.8472 19.7051 34.5079 24.6995 33.9907 26.0155L34.7969 25.9364Z" fill="#166534"/>
<path d="M38.3204 8.66333C38.3204 8.66333 44.6518 10.9574 41.5271 16.5163C41.5271 16.5163 36.3586 15.9338 38.3204 8.66333Z" fill="#41B035"/>
<path d="M41.7943 17.124C41.7943 17.124 41.9227 13.6002 38.8872 10.7883C38.8872 10.7883 41.8977 16.1028 41.1558 16.9693L41.7943 17.124Z" fill="#166534"/>
<path d="M40.1791 6.09634C40.1791 6.09634 44.0029 6.97729 42.9578 10.7779C42.9578 10.7779 41.3455 11.2741 39.9686 7.26135C39.9686 7.26135 39.6904 5.97049 39.5156 6.16106C39.5156 6.16106 39.6084 6.03521 40.1791 6.09634Z" fill="#41B035"/>
<path d="M40.874 7.05664C40.874 7.05664 42.6432 8.77538 43.1569 11.1773L42.9429 11.242C42.9464 11.2456 42.7574 9.80735 40.874 7.05664Z" fill="#166534"/>
<path d="M19.1581 18.8423C19.1581 18.8423 26.5311 20.1044 23.8309 26.8499C23.8309 26.8499 17.9953 27.2418 19.1581 18.8423Z" fill="#41B035"/>
<path d="M24.2159 27.4685C24.2159 27.4685 23.8627 23.5636 20.0889 21.0718C20.0889 21.0718 24.1873 26.3251 23.4846 27.4254L24.2159 27.4685Z" fill="#166534"/>
<path d="M29.7738 10.2485C29.7738 10.2485 36.016 12.201 33.2195 17.7312C33.216 17.7312 28.1794 17.3896 29.7738 10.2485Z" fill="#41B035"/>
<path d="M33.505 18.3097C33.505 18.3097 33.48 14.883 30.416 12.2869C30.416 12.2869 33.5621 17.3172 32.8808 18.1874L33.505 18.3097Z" fill="#166534"/>
<path d="M24.5303 17.519C24.5303 17.519 28.8927 19.3349 26.5243 23.1283C26.5243 23.1283 22.9216 22.5494 24.5303 17.519Z" fill="#41B035"/>
<path d="M26.6923 23.5636C26.6923 23.5636 26.8956 21.097 24.8624 19.0259C24.8624 19.0259 26.7993 22.8517 26.2535 23.4342L26.6923 23.5636Z" fill="#166534"/>
<path d="M21.3311 15.9626C21.3311 15.9626 24.5021 16.5631 23.4427 19.4361C23.4427 19.4361 20.953 19.5584 21.3311 15.9626Z" fill="#41B035"/>
<path d="M23.6175 19.7056C23.6175 19.7056 23.4106 18.0264 21.7627 16.9297C21.7627 16.9297 23.589 19.2166 23.3072 19.684L23.6175 19.7056Z" fill="#166534"/>
<path d="M24.049 13.7761C24.049 13.7761 27.22 14.3766 26.1606 17.2496C26.1606 17.2496 23.6709 17.3718 24.049 13.7761Z" fill="#41B035"/>
<path d="M26.3354 17.519C26.3354 17.519 26.1285 15.8399 24.4806 14.7432C24.4806 14.7432 26.3069 17.03 26.0251 17.4975L26.3354 17.519Z" fill="#166534"/>
<path d="M26.9809 13.4314C26.9809 13.4314 30.152 14.0319 29.0926 16.9048C29.0961 16.9012 26.6028 17.0235 26.9809 13.4314Z" fill="#41B035"/>
<path d="M29.2674 17.1709C29.2674 17.1709 29.0605 15.4917 27.4126 14.395C27.4126 14.395 29.2389 16.6819 28.9571 17.1493L29.2674 17.1709Z" fill="#166534"/>
<path d="M33.9936 8.56641C33.9936 8.56641 38.5308 9.42578 37.0148 13.5357C37.0184 13.5357 33.4514 13.7119 33.9936 8.56641Z" fill="#41B035"/>
<path d="M37.2647 13.92C37.2647 13.92 36.9686 11.5181 34.6108 9.94678C34.6108 9.94678 37.2254 13.2189 36.8188 13.8841L37.2647 13.92Z" fill="#166534"/>
</svg>
