<svg width="825" height="212" viewBox="0 0 825 212" fill="none" xmlns="http://www.w3.org/2000/svg">
<path d="M103.452 78.0741C129.742 78.0741 151.054 63.5402 151.054 45.6118C151.054 27.6833 129.742 13.1494 103.452 13.1494C77.1627 13.1494 55.8506 27.6833 55.8506 45.6118C55.8506 63.5402 77.1627 78.0741 103.452 78.0741Z" fill="#F0EF8C"/>
<path d="M302.788 45.7089L254.652 74.0465C252.614 75.2596 250.042 73.804 249.994 71.4264L249.509 15.5756C249.509 13.1979 252.032 11.6937 254.118 12.8583L302.739 40.3711C304.826 41.5842 304.826 44.5443 302.788 45.7089Z" fill="#F0EF8C"/>
<path d="M302.739 111.653L254.604 139.991C252.566 141.204 249.994 139.748 249.945 137.371L249.46 81.5199C249.46 79.1422 251.983 77.638 254.07 78.8026L302.691 106.315C304.777 107.48 304.777 110.44 302.739 111.653Z" fill="#F0EF8C"/>
<path d="M303.321 177.597L255.186 205.935C253.148 207.148 250.576 205.692 250.528 203.314L250.042 147.463C250.042 145.086 252.566 143.581 254.652 144.746L303.273 172.259C305.359 173.424 305.359 176.383 303.321 177.597Z" fill="#F0EF8C"/>
<path d="M419.584 70.6503L421.331 80.0153C421.622 81.471 423.078 82.0534 424 80.9858L445.205 56.6754C446.127 55.6564 445.739 53.8126 444.574 53.3759L416.77 42.9917C415.605 42.555 414.489 43.8165 414.732 45.3208L416.576 55.1226L386.297 66.1373V39.8376L419.196 27.7067L420.555 10.6748L327.68 44.4474L325.691 33.8207C325.4 32.365 323.944 31.7826 323.022 32.8502L301.817 57.1606C300.895 58.1796 301.284 60.0234 302.448 60.4601L330.252 70.8443C331.417 71.281 332.533 70.0195 332.29 68.5152L330.737 60.3633L371.4 45.3693V71.5722L330.689 86.3719L329.185 103.986L371.4 88.4098V119.61C365.238 120.193 358.493 121.212 351.069 122.668L358.93 138.68L386.976 138.777C386.976 138.777 434.918 158.09 388.82 187.98H344.858V151.83H348.837C351.603 151.83 353.349 148.531 351.942 145.862L338.841 120.872C337.434 118.252 333.989 118.252 332.581 120.872L319.48 145.862C318.073 148.482 319.82 151.83 322.586 151.83H326.516V207.487H344.858V207.439H397.603C397.603 207.439 438.023 193.658 430.405 152.364C430.405 152.364 427.882 123.783 386.249 118.931V82.9752L419.584 70.6503Z" fill="#F0EF8C"/>
<path d="M722.614 104.908C722.614 104.908 695.781 103.937 685.833 125.385C685.833 125.385 683.698 134.459 676.129 140.815C676.129 140.815 713.443 134.022 720.625 106.946C720.673 106.946 721.595 105.539 722.614 104.908Z" fill="#F0EF8C"/>
<path d="M712.327 117.476C712.327 117.476 699.614 115.487 692.675 126.745C692.675 126.745 691.608 132.179 670.84 142.466L672.344 145.766C672.344 145.766 691.123 132.034 693.5 128.685C693.5 128.685 695.393 120.485 712.327 117.476Z" fill="#F0EF8C"/>
<path d="M630.128 87.1489H457.869C457.19 87.1489 456.608 86.5666 456.608 85.8873V77.2988C456.608 76.6194 457.19 76.0371 457.869 76.0371H630.128C630.808 76.0371 631.39 76.6194 631.39 77.2988V85.8873C631.39 86.5666 630.808 87.1489 630.128 87.1489Z" fill="#F0EF8C"/>
<path d="M457.336 87.1004C458.729 87.1004 459.859 84.624 459.859 81.5689C459.859 78.5138 458.729 76.0371 457.336 76.0371C455.942 76.0371 454.812 78.5138 454.812 81.5689C454.812 84.624 455.942 87.1004 457.336 87.1004Z" fill="#F0EF8C"/>
<path d="M455.589 78.1729C455.589 78.1729 454.182 82.4429 455.88 85.4029C455.88 85.4029 456.899 87.6349 457.869 86.2277C457.869 86.2277 459.665 84.0927 459.082 79.2888C459.082 79.2888 457.966 74.7762 456.219 78.1729C456.219 78.1729 454.958 82.4428 456.559 85.3057C456.559 85.3057 457.53 87.8292 458.5 81.2785C458.5 81.2785 458.743 77.445 456.947 78.7066C456.947 78.7066 456.074 80.2595 456.608 81.8607C456.608 81.8607 456.608 82.5884 456.365 81.9576C456.365 81.9576 455.928 80.0166 456.705 78.6094C456.705 78.6094 457.724 77.2025 458.549 79.1434C458.549 79.1434 459.373 85.0632 456.85 86.0337C456.85 86.0337 454.764 85.4999 455.88 78.0757C455.88 78.0757 456.268 76.4746 457.918 76.6687C457.918 76.6687 460.393 78.0273 459.034 83.9472" fill="#F0EF8C"/>
<path d="M481.258 78.7539C481.258 79.0935 481.598 79.3847 482.034 79.3847H501.395C501.832 79.3847 502.172 79.0935 502.172 78.7539C502.172 78.4142 501.832 78.123 501.395 78.123H482.034C481.598 78.123 481.258 78.4142 481.258 78.7539Z" fill="#F0EF8C"/>
<path d="M499.745 81.665C499.745 82.0047 500.085 82.2958 500.521 82.2958H519.882C520.319 82.2958 520.659 82.0047 520.659 81.665C520.659 81.3253 520.319 81.0342 519.882 81.0342H500.521C500.085 81.0342 499.745 81.3253 499.745 81.665Z" fill="#F0EF8C"/>
<path d="M477.57 81.0351C477.57 81.3748 477.91 81.666 478.346 81.666H497.707C498.144 81.666 498.484 81.3748 498.484 81.0351C498.484 80.6955 498.144 80.4043 497.707 80.4043H478.346C477.91 80.4043 477.57 80.6955 477.57 81.0351Z" fill="#F0EF8C"/>
<path d="M481.258 83.9462C481.258 84.4314 481.743 84.771 482.326 84.771H508.383C508.965 84.771 509.45 84.3829 509.45 83.9462C509.45 83.5095 508.965 83.1211 508.383 83.1211H482.326C481.743 83.1211 481.258 83.5095 481.258 83.9462Z" fill="#F0EF8C"/>
<path d="M504.112 77.7345C504.112 78.1227 504.452 78.4625 504.889 78.4625H524.25C524.686 78.4625 525.026 78.1227 525.026 77.7345C525.026 77.3463 524.686 77.0068 524.25 77.0068H504.889C504.452 77.0068 504.112 77.3463 504.112 77.7345Z" fill="#F0EF8C"/>
<path d="M516.486 79.7744C516.486 80.1141 516.826 80.4049 517.263 80.4049H536.623C537.06 80.4049 537.4 80.1141 537.4 79.7744C537.4 79.4347 537.06 79.1436 536.623 79.1436H517.263C516.826 79.1436 516.486 79.4347 516.486 79.7744Z" fill="#F0EF8C"/>
<path d="M515.225 85.6455C515.225 85.9851 515.564 86.2763 516.001 86.2763H535.362C535.799 86.2763 536.138 85.9851 536.138 85.6455C536.138 85.3058 535.799 85.0146 535.362 85.0146H516.001C515.564 85.0146 515.225 85.3058 515.225 85.6455Z" fill="#F0EF8C"/>
<path d="M526.967 83.1217C526.967 83.4614 527.307 83.7526 527.743 83.7526H547.104C547.541 83.7526 547.881 83.4614 547.881 83.1217C547.881 82.7821 547.541 82.4912 547.104 82.4912H527.743C527.307 82.4912 526.967 82.7821 526.967 83.1217Z" fill="#F0EF8C"/>
<path d="M540.505 77.8324C540.505 78.3176 541.039 78.7058 541.718 78.7058H571.318C571.997 78.7058 572.531 78.3176 572.531 77.8324C572.531 77.3471 571.997 77.0075 571.318 76.959H541.718C541.039 77.0075 540.505 77.3957 540.505 77.8324Z" fill="#F0EF8C"/>
<path d="M541.767 80.5986C541.767 80.9383 542.107 81.2294 542.543 81.2294H561.904C562.341 81.2294 562.681 80.9383 562.681 80.5986C562.681 80.2589 562.341 79.9678 561.904 79.9678H542.543C542.107 79.9678 541.767 80.2589 541.767 80.5986Z" fill="#F0EF8C"/>
<path d="M543.174 85.0136C543.174 85.3533 543.514 85.6445 543.951 85.6445H563.311C563.748 85.6445 564.088 85.3533 564.088 85.0136C564.088 84.674 563.748 84.3828 563.311 84.3828H543.951C543.514 84.3828 543.174 84.674 543.174 85.0136Z" fill="#F0EF8C"/>
<path d="M552.199 82.539C552.199 82.8787 552.539 83.1699 552.976 83.1699H572.337C572.774 83.1699 573.113 82.8787 573.113 82.539C573.113 82.1994 572.774 81.9082 572.337 81.9082H552.976C552.588 81.9082 552.199 82.1994 552.199 82.539Z" fill="#F0EF8C"/>
<path d="M574.472 79.7744C574.472 80.1141 574.811 80.4049 575.248 80.4049H594.609C595.046 80.4049 595.385 80.1141 595.385 79.7744C595.385 79.4347 595.046 79.1436 594.609 79.1436H575.248C574.811 79.1436 574.472 79.4347 574.472 79.7744Z" fill="#F0EF8C"/>
<path d="M569.425 84.5293C569.425 84.8689 569.765 85.1601 570.202 85.1601H589.563C589.999 85.1601 590.339 84.8689 590.339 84.5293C590.339 84.1896 589.999 83.8984 589.563 83.8984H570.202C569.765 83.8984 569.425 84.1896 569.425 84.5293Z" fill="#F0EF8C"/>
<path d="M579.081 81.9079C579.081 82.2475 579.421 82.5387 579.858 82.5387H599.219C599.655 82.5387 599.995 82.2475 599.995 81.9079C599.995 81.5682 599.655 81.2773 599.219 81.2773H579.858C579.47 81.2773 579.081 81.5682 579.081 81.9079Z" fill="#F0EF8C"/>
<path d="M588.349 77.7353C588.349 78.075 588.689 78.3662 589.126 78.3662H608.487C608.923 78.3662 609.263 78.075 609.263 77.7353C609.263 77.3957 608.923 77.1045 608.487 77.1045H589.126C588.689 77.1045 588.349 77.3957 588.349 77.7353Z" fill="#F0EF8C"/>
<path d="M592.571 85.6451C592.571 86.1304 592.911 86.47 593.347 86.47H612.902C613.339 86.47 613.679 86.0818 613.679 85.6451C613.679 85.2084 613.339 84.8203 612.902 84.8203H593.347C592.959 84.8203 592.571 85.2084 592.571 85.6451Z" fill="#F0EF8C"/>
<path d="M598.831 79.9668C598.831 80.3064 599.073 80.5976 599.413 80.5976H613.679C614.019 80.5976 614.261 80.3064 614.261 79.9668C614.261 79.6271 614.019 79.3359 613.679 79.3359H599.413C599.073 79.3359 598.831 79.6271 598.831 79.9668Z" fill="#F0EF8C"/>
<path d="M603.392 83.4609C603.392 83.8006 603.586 84.0917 603.78 84.0917H613.291C613.485 84.0917 613.679 83.8006 613.679 83.4609C613.679 83.1212 613.485 82.8301 613.291 82.8301H603.78C603.586 82.8301 603.392 83.1212 603.392 83.4609Z" fill="#F0EF8C"/>
<path d="M484.363 17.9535C484.363 17.9535 492.418 20.0885 481.888 42.5064C481.888 42.5064 476.114 63.8083 499.745 72.2515C499.745 72.2515 491.108 64.5848 501.104 46.534C501.104 46.534 506.296 38.2849 504.549 29.4536C504.549 29.4536 508.576 29.4538 503.579 53.0849C503.579 53.0849 498.581 69.1946 512.798 59.0532C512.798 59.0532 515.079 58.859 515.661 52.8906C515.661 52.8906 518.912 50.4159 516.437 60.1691C516.437 60.1691 517.214 61.1398 511.828 70.3593C511.828 70.3593 531.771 67.3021 525.851 40.4199C525.851 40.4199 527.015 39.8378 519.688 28.1436C519.688 28.1436 517.408 26.0084 518.136 17.0315C518.136 17.0315 512.167 18.5844 516.001 30.8609C516.001 30.8609 518.136 40.7112 510.614 41.4391C510.614 41.4391 517.505 35.6648 508.479 25.1352C508.479 25.1352 498.678 14.7511 503.093 6.89022L506.344 2.62012C506.344 2.62012 495.572 4.3668 495.766 13.9745C495.766 13.9745 495.572 23.7766 498.047 27.6099C498.047 27.6099 500.91 37.4115 494.213 38.9157C494.359 38.8672 501.055 26.2025 484.363 17.9535Z" fill="#F0EF8C"/>
<path d="M602.761 19.264C602.761 19.264 594.706 21.399 605.236 43.817C605.236 43.817 611.01 65.1189 587.379 73.562C587.379 73.562 596.016 65.8953 586.02 47.8445C586.02 47.8445 580.828 39.5954 582.575 30.7641C582.575 30.7641 578.548 30.7641 583.546 54.3951C583.546 54.3951 588.544 70.5052 574.326 60.3637C574.326 60.3637 572.046 60.1695 571.463 54.2011C571.463 54.2011 568.212 51.7264 570.687 61.4797C570.687 61.4797 569.911 62.45 575.297 71.6695C575.297 71.6695 555.354 68.6126 561.273 41.7305C561.273 41.7305 560.109 41.1481 567.436 29.4539C567.436 29.4539 569.717 27.3189 568.989 18.3421C568.989 18.3421 574.957 19.8947 571.124 32.1712C571.124 32.1712 568.989 42.0217 576.51 42.7496C576.51 42.7496 569.619 36.9751 578.645 26.4454C578.645 26.4454 588.447 16.0616 584.031 8.20077L580.78 3.93066C580.78 3.93066 591.552 5.67735 591.358 15.285C591.358 15.285 591.552 25.0868 589.077 28.9202C589.077 28.9202 586.215 38.722 592.911 40.2263C592.814 40.1778 586.069 27.513 602.761 19.264Z" fill="#F0EF8C"/>
<path d="M476.308 93.165C476.308 93.068 476.308 93.0195 476.308 92.9225V65.0214C476.308 64.5847 475.969 64.2451 475.532 64.2451H464.275C463.838 64.2451 463.498 64.5847 463.498 65.0214V92.8253C463.45 92.9224 463.45 93.068 463.498 93.165C463.498 93.2136 463.498 93.3108 463.547 93.3593L468.593 102.142C469.175 103.113 470.583 103.113 471.116 102.142L476.163 93.3593C476.211 93.3108 476.211 93.2621 476.211 93.165V93.165H476.308Z" fill="#F0EF8C"/>
<path d="M465.439 75.4053C465.196 75.4053 465.002 75.5992 465.002 75.8418V86.226C465.002 86.4686 465.196 86.6628 465.439 86.6628C465.682 86.6628 465.876 86.4686 465.876 86.226V75.8418C465.876 75.5992 465.682 75.4053 465.439 75.4053Z" fill="#F0EF8C"/>
<path d="M468.108 74.4824C467.865 74.4824 467.671 74.5794 467.671 74.725V80.7904C467.671 80.936 467.865 81.033 468.108 81.033C468.35 81.033 468.545 80.936 468.545 80.7904V74.725C468.496 74.5794 468.302 74.4824 468.108 74.4824Z" fill="#F0EF8C"/>
<path d="M471.019 69.3877C470.777 69.3877 470.583 69.5333 470.583 69.7274V78.1705C470.583 78.3646 470.777 78.5102 471.019 78.5102C471.262 78.5102 471.456 78.3646 471.456 78.1705V69.7274C471.408 69.5333 471.262 69.3877 471.019 69.3877Z" fill="#F0EF8C"/>
<path d="M470.146 80.3066C469.904 80.3066 469.709 80.4522 469.709 80.6463V89.0894C469.709 89.2835 469.904 89.4291 470.146 89.4291C470.389 89.4291 470.583 89.2835 470.583 89.0894V80.6463C470.583 80.4522 470.389 80.3066 470.146 80.3066Z" fill="#F0EF8C"/>
<path d="M473.542 77.0059C473.3 77.0059 473.106 77.1515 473.106 77.3456V85.7886C473.106 85.9827 473.3 86.1283 473.542 86.1283C473.785 86.1283 473.979 85.9827 473.979 85.7886V77.3456C473.931 77.1515 473.785 77.0059 473.542 77.0059Z" fill="#F0EF8C"/>
<path d="M466.507 65.5059C466.264 65.5059 466.07 65.6512 466.07 65.8453V74.2886C466.07 74.4827 466.264 74.628 466.507 74.628C466.749 74.628 466.943 74.4827 466.943 74.2886V65.8453C466.895 65.6512 466.701 65.5059 466.507 65.5059Z" fill="#F0EF8C"/>
<path d="M466.749 83.9463C466.507 83.9463 466.313 84.0433 466.313 84.1888V90.2543C466.313 90.3999 466.507 90.4969 466.749 90.4969C466.992 90.4969 467.186 90.3999 467.186 90.2543V84.1888C467.186 84.0918 466.992 83.9463 466.749 83.9463Z" fill="#F0EF8C"/>
<path d="M471.844 84.8672C471.601 84.8672 471.407 84.9642 471.407 85.1097V91.1266C471.407 91.2722 471.601 91.3692 471.844 91.3692C472.087 91.3692 472.281 91.2722 472.281 91.1266V85.1097C472.281 84.9642 472.087 84.8672 471.844 84.8672Z" fill="#F0EF8C"/>
<path d="M468.496 82.4902C468.253 82.4902 468.059 82.6355 468.059 82.8296V91.273C468.059 91.4671 468.253 91.6124 468.496 91.6124C468.739 91.6124 468.933 91.4671 468.933 91.273V82.8296C468.933 82.6355 468.739 82.4902 468.496 82.4902Z" fill="#F0EF8C"/>
<path d="M473.106 65.7979C472.863 65.7979 472.669 65.9432 472.669 66.1373V74.5806C472.669 74.7747 472.863 74.9203 473.106 74.9203C473.348 74.9203 473.542 74.7747 473.542 74.5806V66.1373C473.542 65.9432 473.348 65.7979 473.106 65.7979Z" fill="#F0EF8C"/>
<path d="M468.738 66.8164C468.496 66.8164 468.302 66.9136 468.302 67.0107V72.3967C468.302 72.4938 468.496 72.5907 468.738 72.5907C468.981 72.5907 469.175 72.4938 469.175 72.3967V67.0107C469.175 66.9136 468.981 66.8164 468.738 66.8164Z" fill="#F0EF8C"/>
<path d="M468.496 102.238L463.692 94.3768C463.013 93.3093 463.789 91.9023 465.099 91.9023H474.659C475.92 91.9023 476.697 93.3093 476.066 94.3768L471.262 102.238C470.631 103.305 469.127 103.305 468.496 102.238Z" fill="#F0EF8C"/>
<path d="M628.721 94.1367C628.721 94.0397 628.721 93.9912 628.721 93.8942V65.993C628.721 65.5563 628.381 65.2168 627.945 65.2168H616.687C616.25 65.2168 615.911 65.5563 615.911 65.993V93.797C615.862 93.8941 615.862 94.0397 615.911 94.1367C615.911 94.1852 615.911 94.2825 615.959 94.331L621.006 103.114C621.588 104.084 622.995 104.084 623.529 103.114L628.575 94.331C628.624 94.2825 628.624 94.2338 628.624 94.1367V94.1367H628.721Z" fill="#F0EF8C"/>
<path d="M617.9 76.377C617.658 76.377 617.464 76.5709 617.464 76.8135V87.1976C617.464 87.4403 617.658 87.6345 617.9 87.6345C618.143 87.6345 618.337 87.4403 618.337 87.1976V76.8135C618.288 76.5709 618.094 76.377 617.9 76.377Z" fill="#F0EF8C"/>
<path d="M620.521 75.4072C620.278 75.4072 620.084 75.5042 620.084 75.6498V81.7152C620.084 81.8608 620.278 81.9578 620.521 81.9578C620.763 81.9578 620.957 81.8608 620.957 81.7152V75.6498C620.957 75.5042 620.763 75.4072 620.521 75.4072Z" fill="#F0EF8C"/>
<path d="M623.481 70.3604C623.238 70.3604 623.044 70.5057 623.044 70.6998V79.1431C623.044 79.3372 623.238 79.4825 623.481 79.4825C623.723 79.4825 623.917 79.3372 623.917 79.1431V70.6998C623.869 70.5057 623.675 70.3604 623.481 70.3604Z" fill="#F0EF8C"/>
<path d="M622.607 81.2295C622.364 81.2295 622.17 81.3751 622.17 81.5692V90.0123C622.17 90.2064 622.364 90.352 622.607 90.352C622.85 90.352 623.044 90.2064 623.044 90.0123V81.5692C623.044 81.4236 622.85 81.2295 622.607 81.2295Z" fill="#F0EF8C"/>
<path d="M626.004 77.9297C625.761 77.9297 625.567 78.075 625.567 78.2691V86.7125C625.567 86.9066 625.761 87.0522 626.004 87.0522C626.247 87.0522 626.441 86.9066 626.441 86.7125V78.2691C626.392 78.1235 626.198 77.9297 626.004 77.9297Z" fill="#F0EF8C"/>
<path d="M618.919 66.4297C618.677 66.4297 618.482 66.575 618.482 66.7691V75.2125C618.482 75.4066 618.677 75.5519 618.919 75.5519C619.162 75.5519 619.356 75.4066 619.356 75.2125V66.7691C619.356 66.575 619.162 66.4297 618.919 66.4297Z" fill="#F0EF8C"/>
<path d="M619.21 84.917C618.968 84.917 618.774 85.014 618.774 85.1596V91.225C618.774 91.3706 618.968 91.4676 619.21 91.4676C619.453 91.4676 619.647 91.3706 619.647 91.225V85.1596C619.647 85.014 619.453 84.917 619.21 84.917Z" fill="#F0EF8C"/>
<path d="M624.305 85.8398C624.063 85.8398 623.869 85.9368 623.869 86.0824V92.0993C623.869 92.2449 624.063 92.3418 624.305 92.3418C624.548 92.3418 624.742 92.2449 624.742 92.0993V86.0824C624.742 85.9368 624.548 85.8398 624.305 85.8398Z" fill="#F0EF8C"/>
<path d="M620.957 83.4619C620.715 83.4619 620.521 83.6075 620.521 83.8016V92.2447C620.521 92.4388 620.715 92.5844 620.957 92.5844C621.2 92.5844 621.394 92.4388 621.394 92.2447V83.8016C621.394 83.6075 621.2 83.4619 620.957 83.4619Z" fill="#F0EF8C"/>
<path d="M625.567 66.7217C625.324 66.7217 625.13 66.867 625.13 67.0611V75.5045C625.13 75.6985 625.324 75.8439 625.567 75.8439C625.81 75.8439 626.004 75.6985 626.004 75.5045V67.0611C626.004 66.867 625.81 66.7217 625.567 66.7217Z" fill="#F0EF8C"/>
<path d="M621.2 67.7402C620.957 67.7402 620.763 67.8375 620.763 67.9345V73.3206C620.763 73.4176 620.957 73.5146 621.2 73.5146C621.442 73.5146 621.636 73.4176 621.636 73.3206V67.9345C621.636 67.8375 621.442 67.7402 621.2 67.7402Z" fill="#F0EF8C"/>
<path d="M620.957 103.211L616.154 95.3498C615.474 94.2822 616.251 92.875 617.561 92.875H627.12C628.381 92.875 629.158 94.2822 628.527 95.3498L623.723 103.211C623.092 104.23 621.588 104.23 620.957 103.211Z" fill="#F0EF8C"/>
<path d="M545.697 95.834C545.697 95.834 493.243 102.918 487.42 188.708L539.875 211.32C539.875 211.32 532.353 144.697 545.697 95.834Z" fill="#F0EF8C"/>
<path d="M545.358 95.834C545.358 95.834 545.357 95.8337 544.969 97.0954C542.495 105.441 533.469 142.126 539.777 212L611.98 189.096C611.98 189.096 603.926 106.024 545.358 95.834Z" fill="#F0EF8C"/>
<path d="M526.773 117.864C523.182 116.506 519.883 117.719 518.475 120.097C518.378 120.291 518.233 120.533 518.184 120.63L510.517 132.276L530.509 141.447L531.674 124.464V124.415C532.111 121.892 530.072 119.078 526.773 117.864Z" fill="#F0EF8C"/>
<path d="M747.798 23.0975C746.876 18.1966 743.14 19.2642 743.14 19.2642C737.463 10.0933 730.621 13.5871 730.621 13.5871L729.165 12.1797L726.157 15.2367L723.148 18.2937L724.604 19.7011C724.604 19.7011 721.256 26.5914 730.475 32.0746C730.475 32.0746 729.456 35.811 734.357 36.6844C734.357 36.6844 735.231 41.0513 738.821 41.0513C738.821 41.0513 741.733 45.2246 744.499 47.0199C746.391 48.8638 751.001 47.214 754.786 43.3807C758.57 39.4988 760.123 34.889 758.231 32.9965C758.182 32.948 758.134 32.9479 758.134 32.8994C756.29 30.2306 752.165 27.4648 752.165 27.4648C752.165 23.874 747.798 23.0975 747.798 23.0975Z" fill="#F0EF8C"/>
<path d="M744.984 21.7379C744.887 21.8349 744.838 21.932 744.79 22.0776C738.239 30.8118 734.746 32.6072 733.533 32.9954C733.193 32.4616 733.047 31.7337 733.338 30.7632C733.338 30.7632 733.872 28.4827 731.786 29.3561C731.786 29.3561 729.359 34.9849 735.425 36.0524L736.832 36.101C736.832 36.101 738.433 35.179 736.978 34.4996C736.978 34.4996 735.862 34.4995 734.843 34.0628L735.473 33.9174C741.49 30.181 746.1 23.0964 746.1 23.0964L746.052 23.0481C746.1 22.9996 746.149 22.9995 746.149 22.951C746.488 22.6113 746.537 22.029 746.197 21.7379C745.858 21.4467 745.324 21.3982 744.984 21.7379Z" fill="#F0EF8C"/>
<path d="M748.817 25.2317C748.72 25.3288 748.672 25.4259 748.623 25.5714C742.315 33.966 739.015 35.5674 737.657 36.2953C737.366 36.3923 737.172 36.4407 737.026 36.4893C736.541 36.6834 736.298 37.1202 736.444 37.5084C736.589 37.8966 736.978 38.0422 737.463 37.8966C737.608 37.8481 737.705 37.7994 737.851 37.7024L737.948 37.6055L739.549 36.5864C745.566 32.8501 749.933 26.4934 749.933 26.4934L750.03 26.3966C750.079 26.348 749.982 26.4451 750.03 26.3966C750.273 26.1539 750.37 25.4746 750.03 25.1835C749.691 24.8923 749.157 24.8921 748.817 25.2317Z" fill="#F0EF8C"/>
<path d="M752.408 29.4047C752.311 29.5018 752.262 29.5986 752.214 29.7441C745.906 38.1387 742.606 39.7401 741.248 40.468C740.957 40.565 740.762 40.6135 740.617 40.662C740.132 40.8561 739.889 41.2929 740.035 41.6811C740.18 42.0693 740.568 42.2149 741.054 42.0694C741.199 42.0208 741.296 41.9721 741.442 41.8751L741.539 41.7782L743.14 40.7591C749.157 37.0228 753.524 30.6661 753.524 30.6661L753.621 30.5693C753.67 30.5207 753.573 30.6178 753.621 30.5693C753.864 30.3266 753.961 29.6473 753.621 29.3562C753.282 29.065 752.748 29.0651 752.408 29.4047Z" fill="#F0EF8C"/>
<path d="M738.288 26.2518C739.279 26.2518 740.083 25.448 740.083 24.4565C740.083 23.4649 739.279 22.6611 738.288 22.6611C737.296 22.6611 736.492 23.4649 736.492 24.4565C736.492 25.448 737.296 26.2518 738.288 26.2518Z" fill="#F0EF8C"/>
<path d="M736.881 29.5995C737.577 29.5995 738.142 29.0346 738.142 28.3378C738.142 27.6411 737.577 27.0762 736.881 27.0762C736.184 27.0762 735.619 27.6411 735.619 28.3378C735.619 29.0346 736.184 29.5995 736.881 29.5995Z" fill="#F0EF8C"/>
<path d="M740.86 32.8017C741.503 32.8017 742.024 32.2804 742.024 31.6372C742.024 30.994 741.503 30.4727 740.86 30.4727C740.216 30.4727 739.695 30.994 739.695 31.6372C739.695 32.2804 740.216 32.8017 740.86 32.8017Z" fill="#F0EF8C"/>
<path d="M743.237 30.91C743.639 30.91 743.965 30.5841 743.965 30.1821C743.965 29.7801 743.639 29.4541 743.237 29.4541C742.835 29.4541 742.509 29.7801 742.509 30.1821C742.509 30.5841 742.835 30.91 743.237 30.91Z" fill="#F0EF8C"/>
<path d="M743.917 35.228C744.238 35.228 744.499 34.9673 744.499 34.6457C744.499 34.3242 744.238 34.0635 743.917 34.0635C743.595 34.0635 743.334 34.3242 743.334 34.6457C743.334 34.9673 743.595 35.228 743.917 35.228Z" fill="#F0EF8C"/>
<path d="M746.245 33.9667C746.647 33.9667 746.973 33.6407 746.973 33.2387C746.973 32.8367 746.647 32.5107 746.245 32.5107C745.844 32.5107 745.518 32.8367 745.518 33.2387C745.518 33.6407 745.844 33.9667 746.245 33.9667Z" fill="#F0EF8C"/>
<path d="M746.051 36.1013C746.373 36.1013 746.634 35.8404 746.634 35.5188C746.634 35.1972 746.373 34.9365 746.051 34.9365C745.73 34.9365 745.469 35.1972 745.469 35.5188C745.469 35.8404 745.73 36.1013 746.051 36.1013Z" fill="#F0EF8C"/>
<path d="M728.976 12.2142L723.13 18.1699L724.653 19.6655L730.5 13.7098L728.976 12.2142Z" fill="#F0EF8C"/>
<path d="M729.311 10.1897C728.874 9.65595 728.243 9.94715 728.243 9.94715L725.768 7.42383C723.585 7.52088 721.11 10.2383 721.11 10.2383C721.11 10.2383 718.441 12.7614 718.344 14.9449L720.916 17.3711C720.916 17.3711 720.625 18.0021 721.159 18.4388C721.207 18.4873 721.207 18.5356 721.256 18.5356C721.595 18.8753 722.081 18.924 722.517 18.7299C722.906 18.6329 724.022 18.1477 726.496 15.4789C729.117 12.9557 729.602 11.8396 729.65 11.4514C729.844 11.0147 729.747 10.5294 729.408 10.1897C729.359 10.2382 729.311 10.2382 729.311 10.1897Z" fill="#F0EF8C"/>
<path d="M696.655 53.5211L701.361 65.7492C701.361 65.7492 754.932 50.7068 792.489 65.7492C792.489 65.7492 806.561 71.3778 800.932 90.1564L823.495 94.8634C823.495 94.8634 835.723 54.4432 786.86 48.8145L696.655 53.5211Z" fill="#F0EF8C"/>
<path d="M717.325 131.839L730.184 145.619C730.184 145.619 712.328 166.291 692.287 177.257L679.428 162.554C679.428 162.506 709.028 150.326 717.325 131.839Z" fill="#F0EF8C"/>
<path d="M729.068 155.955L741.927 169.736C741.927 169.736 724.07 190.407 704.03 201.373L691.171 186.671C691.171 186.622 720.771 174.443 729.068 155.955Z" fill="#F0EF8C"/>
<path d="M737.365 123.978C737.365 123.978 751.146 114.904 758.959 123.978C758.959 123.978 773.661 199.481 746.1 203.217C746.1 203.217 740.471 202.587 733.241 190.698L741.878 190.067C741.878 190.067 753.33 154.985 743.285 134.945L736.686 133.683L737.365 123.978Z" fill="#F0EF8C"/>
<path d="M774.341 157.848L769.003 175.995C769.003 175.995 796.565 196.036 810.054 187.593L816.653 167.844C816.605 167.844 789.334 172.211 774.341 157.848Z" fill="#F0EF8C"/>
<path d="M694.616 24.5049C694.616 24.5049 658.321 36.1019 655.361 69.5833C655.361 69.5833 656.865 82.7333 649.781 94.8642C649.781 94.8642 696.363 67.8365 692.967 28.1442C692.967 28.1442 693.5 25.8635 694.616 24.5049Z" fill="#F0EF8C"/>
<path d="M686.901 46.292C686.901 46.292 668.947 49.7372 665.114 68.1276C665.114 68.1276 666.327 75.8914 643.521 99.668L647.111 103.404C647.111 103.404 665.55 75.9886 667.152 70.3598C667.152 70.3113 665.745 58.4714 686.901 46.292Z" fill="#F0EF8C"/>
<path d="M79.8218 57.548V42.9909H79.7732C79.7732 39.7883 76.8133 37.168 73.1255 37.168C69.4377 37.168 66.4777 39.7883 66.4777 42.9909H66.4292V63.856H66.4777C66.7203 66.8645 69.5832 69.242 73.0769 69.242H95.0096V57.548H79.8218Z" fill="#F0EF8C"/>
<path d="M127.084 57.548V42.9909H127.132C127.132 39.7883 130.092 37.168 133.78 37.168C137.468 37.168 140.428 39.7883 140.428 42.9909H140.476V63.856H140.428C140.185 66.8645 137.322 69.242 133.829 69.242H111.896V57.548H127.084Z" fill="#F0EF8C"/>
<path d="M79.8218 92.3406V106.898H79.7732C79.7732 110.1 76.8133 112.721 73.1255 112.721C69.4377 112.721 66.4777 110.1 66.4777 106.898H66.4292V86.0325H66.4777C66.7203 83.0241 69.5832 80.6465 73.0769 80.6465H95.0096V92.3406H79.8218Z" fill="#F0EF8C"/>
<path d="M127.084 92.3406V106.898H127.132C127.132 110.1 130.092 112.721 133.78 112.721C137.468 112.721 140.428 110.1 140.428 106.898H140.476V86.0325H140.428C140.185 83.0241 137.322 80.6465 133.829 80.6465H111.896V92.3406H127.084Z" fill="#F0EF8C"/>
<path d="M109.615 43.6703C109.615 43.6217 109.615 43.6217 109.615 43.6217C109.615 40.0309 106.849 37.168 103.453 37.168C100.056 37.168 97.29 40.0795 97.29 43.6217C97.29 43.6702 97.29 43.6703 97.29 43.6703V106.217C97.29 109.808 100.056 112.671 103.453 112.671C106.849 112.671 109.615 109.759 109.615 106.217V43.6703Z" fill="#F0EF8C"/>
<path d="M47.7473 175.558C74.037 175.558 95.349 161.025 95.349 143.096C95.349 125.168 74.037 110.634 47.7473 110.634C21.4576 110.634 0.14563 125.168 0.14563 143.096C0.14563 161.025 21.4576 175.558 47.7473 175.558Z" fill="#F0EF8C"/>
<path d="M24.1161 155.033V140.476H24.0676C24.0676 137.273 21.1076 134.653 17.4198 134.653C13.7806 134.653 10.7721 137.273 10.7721 140.476H10.7236V161.341H10.7721C11.0147 164.35 13.8776 166.727 17.3714 166.727H39.3041V155.033H24.1161Z" fill="#F0EF8C"/>
<path d="M71.3782 155.033V140.476H71.4267C71.4267 137.273 74.3866 134.653 78.0744 134.653C81.7622 134.653 84.7221 137.273 84.7221 140.476H84.7707V161.341H84.7221C84.4795 164.35 81.6167 166.727 78.123 166.727H56.1902V155.033H71.3782Z" fill="#F0EF8C"/>
<path d="M24.1161 189.824V204.381H24.0676C24.0676 207.584 21.1076 210.204 17.4198 210.204C13.7806 210.204 10.7721 207.584 10.7721 204.381H10.7236V183.516H10.7721C11.0147 180.507 13.8776 178.13 17.3714 178.13H39.3041V189.824H24.1161Z" fill="#F0EF8C"/>
<path d="M71.3782 189.824V204.381H71.4267C71.4267 207.584 74.3866 210.204 78.0744 210.204C81.7622 210.204 84.7221 207.584 84.7221 204.381H84.7707V183.516H84.7221C84.4795 180.507 81.6167 178.13 78.123 178.13H56.1902V189.824H71.3782Z" fill="#F0EF8C"/>
<path d="M53.91 141.203C53.91 141.155 53.91 141.155 53.91 141.155C53.91 137.564 51.1441 134.701 47.7475 134.701C44.3508 134.701 41.585 137.613 41.585 141.155C41.585 141.203 41.585 141.203 41.585 141.203V203.751C41.585 207.341 44.3508 210.204 47.7475 210.204C51.1441 210.204 53.91 207.293 53.91 203.751V141.203Z" fill="#F0EF8C"/>
<path d="M161.924 175.364C188.213 175.364 209.525 160.83 209.525 142.902C209.525 124.973 188.213 110.439 161.924 110.439C135.634 110.439 114.322 124.973 114.322 142.902C114.322 160.83 135.634 175.364 161.924 175.364Z" fill="#F0EF8C"/>
<path d="M138.293 154.838V140.281H138.244C138.244 137.078 135.284 134.458 131.596 134.458C127.957 134.458 124.949 137.078 124.949 140.281H124.9V161.146H124.949C125.191 164.154 128.054 166.532 131.548 166.532H153.48V154.838H138.293Z" fill="#F0EF8C"/>
<path d="M185.554 154.838V140.281H185.603C185.603 137.078 188.563 134.458 192.251 134.458C195.939 134.458 198.898 137.078 198.898 140.281H198.947V161.146H198.898C198.656 164.154 195.793 166.532 192.299 166.532H170.367V154.838H185.554Z" fill="#F0EF8C"/>
<path d="M138.293 189.631V204.188H138.244C138.244 207.39 135.284 210.011 131.596 210.011C127.957 210.011 124.949 207.39 124.949 204.188H124.9V183.323H124.949C125.191 180.314 128.054 177.937 131.548 177.937H153.48V189.631H138.293Z" fill="#F0EF8C"/>
<path d="M185.554 189.631V204.188H185.603C185.603 207.39 188.563 210.011 192.251 210.011C195.939 210.011 198.898 207.39 198.898 204.188H198.947V183.323H198.898C198.656 180.314 195.793 177.937 192.299 177.937H170.367V189.631H185.554Z" fill="#F0EF8C"/>
<path d="M168.086 141.009C168.086 140.961 168.086 140.961 168.086 140.961C168.086 137.37 165.32 134.507 161.923 134.507C158.527 134.507 155.761 137.418 155.761 140.961C155.761 141.009 155.761 141.009 155.761 141.009V203.556C155.761 207.147 158.527 210.01 161.923 210.01C165.32 210.01 168.086 207.098 168.086 203.556V141.009Z" fill="#F0EF8C"/>
<path d="M550.065 205.74L605.139 188.563C605.139 188.563 603.198 160.807 581.653 140.912C581.653 140.912 577.141 136.788 570.784 133.343L566.514 131.159C566.563 131.159 544.048 144.891 550.065 205.74Z" fill="#F0EF8C"/>
<path d="M780.891 79.8213H702.283V101.123H780.891V79.8213Z" fill="#F0EF8C"/>
<path d="M777.786 148.725V151.685H773.467C773.467 151.685 767.353 150.375 769.44 144.503L773.273 137.953L771.963 137.128L777.204 134.119V140.088L775.845 139.311L772.157 145.91C772.157 145.91 771.284 147.851 773.613 148.676L777.786 148.725Z" fill="#F0EF8C"/>
<path d="M779.242 133.052L776.67 131.548L778.854 127.811C778.854 127.811 783.075 123.153 787.054 127.908L790.79 134.508L792.149 133.78V139.797L787.006 136.837L788.364 136.06L784.482 129.558C784.482 129.558 783.269 127.811 781.377 129.413L779.242 133.052Z" fill="#F0EF8C"/>
<path d="M792.003 142.32L794.575 140.815L796.759 144.552C796.759 144.552 798.7 150.52 792.634 151.636H785.016L784.967 153.189L779.727 150.229L784.87 147.221V148.773L792.44 148.628C792.44 148.628 794.527 148.434 794.09 146.007L792.003 142.32Z" fill="#F0EF8C"/>
<path d="M103.307 75.4052C129.596 75.4052 150.909 60.8713 150.909 42.9428C150.909 25.0144 129.596 10.4805 103.307 10.4805C77.0171 10.4805 55.705 25.0144 55.705 42.9428C55.705 60.8713 77.0171 75.4052 103.307 75.4052Z" fill="#5FB630"/>
<path d="M302.642 43.0885L254.507 71.4264C252.469 72.6395 249.897 71.1839 249.848 68.8062L249.363 12.9554C249.363 10.5778 251.886 9.07357 253.973 10.2381L302.594 37.751C304.632 38.9155 304.68 41.8754 302.642 43.0885Z" fill="#BA5D2E"/>
<path d="M302.593 109.032L254.458 137.37C252.42 138.583 249.848 137.127 249.8 134.75L249.315 78.8988C249.315 76.5211 251.838 75.0169 253.924 76.1815L302.545 103.695C304.583 104.859 304.631 107.819 302.593 109.032Z" fill="#9AAC87"/>
<path d="M303.176 174.976L255.04 203.314C253.002 204.527 250.431 203.072 250.382 200.694L249.897 144.843C249.897 142.465 252.42 140.961 254.507 142.126L303.127 169.639C305.165 170.803 305.214 173.763 303.176 174.976Z" fill="#C7D5B3"/>
<path d="M419.439 68.0299L421.185 77.3949C421.476 78.8506 422.932 79.433 423.854 78.3654L445.059 54.055C445.981 53.036 445.593 51.1922 444.428 50.7555L416.624 40.3713C415.459 39.9346 414.344 41.1964 414.586 42.7007L416.43 52.5022L386.151 63.5172V37.2175L419.05 25.0865L420.409 8.05469L327.535 41.8273L325.545 31.2006C325.254 29.7449 323.798 29.1625 322.876 30.23L301.672 54.5404C300.75 55.5594 301.138 57.4033 302.302 57.84L330.106 68.2241C331.271 68.6609 332.387 67.399 332.144 65.8948L330.592 57.7429L371.255 42.7492V68.9518L330.543 83.7515L329.039 101.366L371.255 85.7897V116.99C365.092 117.573 358.347 118.592 350.923 120.047L358.784 136.06L386.831 136.157C386.831 136.157 434.772 155.469 388.675 185.36H344.712V149.21H348.691C351.457 149.21 353.204 145.91 351.797 143.242L338.695 118.252C337.288 115.632 333.843 115.632 332.436 118.252L319.334 143.242C317.927 145.862 319.674 149.21 322.44 149.21H326.37V204.867H344.712V204.818H397.457C397.457 204.818 437.878 191.086 430.259 149.744C430.259 149.744 427.736 121.163 386.103 116.311V80.3551L419.439 68.0299Z" fill="#DBE0D8"/>
<path d="M722.469 102.288C722.469 102.288 695.635 101.318 685.688 122.765C685.688 122.765 683.552 131.839 675.983 138.196C675.983 138.196 713.298 131.402 720.479 104.326C720.528 104.278 721.401 102.919 722.469 102.288Z" fill="#40AF36"/>
<path d="M712.181 114.856C712.181 114.856 699.468 112.867 692.529 124.124C692.529 124.124 691.462 129.559 670.694 139.846L672.198 143.146C672.198 143.146 690.977 129.413 693.354 126.065C693.354 126.065 695.247 117.865 712.181 114.856Z" fill="#14502A"/>
<path d="M629.983 84.479H457.724C457.044 84.479 456.462 83.8967 456.462 83.2173V74.6286C456.462 73.9492 457.044 73.3672 457.724 73.3672H629.983C630.662 73.3672 631.244 73.9492 631.244 74.6286V83.2173C631.244 83.9452 630.662 84.479 629.983 84.479Z" fill="#B4691F"/>
<path d="M457.19 84.4796C458.584 84.4796 459.713 82.0029 459.713 78.9478C459.713 75.8927 458.584 73.416 457.19 73.416C455.796 73.416 454.667 75.8927 454.667 78.9478C454.667 82.0029 455.796 84.4796 457.19 84.4796Z" fill="#F7CB5E"/>
<path d="M455.443 75.5508C455.443 75.5508 454.036 79.8211 455.734 82.7811C455.734 82.7811 456.753 85.0131 457.723 83.6059C457.723 83.6059 459.519 81.4709 458.937 76.6671C458.937 76.6671 457.821 72.1542 456.074 75.5508C456.074 75.5508 454.812 79.8211 456.413 82.6839C456.413 82.6839 457.384 85.2071 458.354 78.6564C458.354 78.6564 458.597 74.8232 456.802 76.0848C456.802 76.0848 455.928 77.6374 456.462 79.2387C456.462 79.2387 456.462 79.9666 456.219 79.3358C456.219 79.3358 455.783 77.3948 456.559 75.9877C456.559 75.9877 457.578 74.5804 458.403 76.5213C458.403 76.5213 459.228 82.4414 456.705 83.4119C456.705 83.4119 454.618 82.8781 455.734 75.454C455.734 75.454 456.122 73.8525 457.772 74.0466C457.772 74.0466 460.247 75.4053 458.888 81.3251" fill="#B4691F"/>
<path d="M481.112 76.1328C481.112 76.4725 481.452 76.7633 481.889 76.7633H501.249C501.686 76.7633 502.026 76.4725 502.026 76.1328C502.026 75.7931 501.686 75.502 501.249 75.502H481.889C481.452 75.502 481.112 75.7931 481.112 76.1328Z" fill="#944B23"/>
<path d="M499.599 79.0449C499.599 79.3846 499.939 79.6757 500.376 79.6757H519.737C520.173 79.6757 520.513 79.3846 520.513 79.0449C520.513 78.7052 520.173 78.4141 519.737 78.4141H500.376C499.939 78.4141 499.599 78.6567 499.599 79.0449Z" fill="#944B23"/>
<path d="M477.424 78.4131C477.424 78.7527 477.764 79.0439 478.201 79.0439H497.562C497.998 79.0439 498.338 78.7527 498.338 78.4131C498.338 78.0734 497.998 77.7822 497.562 77.7822H478.201C477.764 77.7822 477.424 78.0249 477.424 78.4131Z" fill="#944B23"/>
<path d="M481.112 81.3248C481.112 81.8101 481.597 82.1499 482.18 82.1499H508.237C508.819 82.1499 509.304 81.7615 509.304 81.3248C509.304 80.8881 508.819 80.5 508.237 80.5H482.18C481.549 80.5 481.112 80.8881 481.112 81.3248Z" fill="#944B23"/>
<path d="M503.967 75.1137C503.967 75.5019 504.306 75.8414 504.743 75.8414H524.104C524.541 75.8414 524.88 75.5019 524.88 75.1137C524.88 74.7255 524.541 74.3857 524.104 74.3857H504.743C504.306 74.3857 503.967 74.677 503.967 75.1137Z" fill="#944B23"/>
<path d="M516.292 77.1035C516.292 77.4432 516.632 77.7343 517.068 77.7343H536.429C536.866 77.7343 537.206 77.4432 537.206 77.1035C537.206 76.7638 536.866 76.4727 536.429 76.4727H517.068C516.68 76.5212 516.292 76.7638 516.292 77.1035Z" fill="#944B23"/>
<path d="M515.079 83.0234C515.079 83.3631 515.418 83.6542 515.855 83.6542H535.216C535.653 83.6542 535.992 83.3631 535.992 83.0234C535.992 82.6837 535.653 82.3926 535.216 82.3926H515.855C515.418 82.3926 515.079 82.6837 515.079 83.0234Z" fill="#944B23"/>
<path d="M526.773 80.499C526.773 80.8387 527.112 81.1298 527.549 81.1298H546.91C547.347 81.1298 547.686 80.8387 547.686 80.499C547.686 80.1593 547.347 79.8682 546.91 79.8682H527.549C527.161 79.8682 526.773 80.1593 526.773 80.499Z" fill="#944B23"/>
<path d="M540.359 75.2116C540.359 75.6968 540.893 76.085 541.572 76.085H571.172C571.851 76.085 572.385 75.6968 572.385 75.2116C572.385 74.7263 571.851 74.3864 571.172 74.3379H541.572C540.893 74.3864 540.359 74.7263 540.359 75.2116Z" fill="#944B23"/>
<path d="M541.573 77.9772C541.573 78.3169 541.912 78.608 542.349 78.608H561.71C562.147 78.608 562.486 78.3169 562.486 77.9772C562.486 77.6375 562.147 77.3467 561.71 77.3467H542.349C541.961 77.3467 541.573 77.6375 541.573 77.9772Z" fill="#944B23"/>
<path d="M543.028 82.3926C543.028 82.7322 543.368 83.0234 543.805 83.0234H563.166C563.602 83.0234 563.942 82.7322 563.942 82.3926C563.942 82.0529 563.602 81.7617 563.166 81.7617H543.805C543.368 81.7617 543.028 82.0529 543.028 82.3926Z" fill="#944B23"/>
<path d="M552.054 79.9179C552.054 80.2576 552.394 80.5488 552.83 80.5488H572.191C572.628 80.5488 572.968 80.2576 572.968 79.9179C572.968 79.5783 572.628 79.2871 572.191 79.2871H552.83C552.394 79.2871 552.054 79.5783 552.054 79.9179Z" fill="#944B23"/>
<path d="M574.326 77.1035C574.326 77.4432 574.666 77.7343 575.102 77.7343H594.463C594.9 77.7343 595.24 77.4432 595.24 77.1035C595.24 76.7638 594.9 76.4727 594.463 76.4727H575.102C574.666 76.5212 574.326 76.7638 574.326 77.1035Z" fill="#944B23"/>
<path d="M569.279 81.9069C569.279 82.2466 569.619 82.5377 570.056 82.5377H589.417C589.853 82.5377 590.193 82.2466 590.193 81.9069C590.193 81.5672 589.853 81.2764 589.417 81.2764H570.056C569.619 81.2764 569.279 81.5672 569.279 81.9069Z" fill="#944B23"/>
<path d="M578.936 79.2861C578.936 79.6258 579.275 79.9169 579.712 79.9169H599.073C599.51 79.9169 599.849 79.6258 599.849 79.2861C599.849 78.9464 599.51 78.6553 599.073 78.6553H579.712C579.275 78.6553 578.936 78.9464 578.936 79.2861Z" fill="#944B23"/>
<path d="M588.204 75.1142C588.204 75.4539 588.543 75.7451 588.98 75.7451H608.341C608.778 75.7451 609.117 75.4539 609.117 75.1142C609.117 74.7746 608.778 74.4834 608.341 74.4834H588.98C588.543 74.4834 588.204 74.7746 588.204 75.1142Z" fill="#944B23"/>
<path d="M592.425 83.024C592.425 83.5093 592.765 83.8489 593.202 83.8489H612.757C613.193 83.8489 613.533 83.4608 613.533 83.024C613.533 82.5873 613.193 82.1992 612.757 82.1992H593.202C592.765 82.1992 592.425 82.5388 592.425 83.024Z" fill="#944B23"/>
<path d="M598.685 77.3457C598.685 77.6853 598.928 77.9762 599.267 77.9762H613.533C613.873 77.9762 614.115 77.6853 614.115 77.3457C614.115 77.006 613.873 76.7148 613.533 76.7148H599.267C598.928 76.7148 598.685 77.006 598.685 77.3457Z" fill="#944B23"/>
<path d="M603.246 80.8398C603.246 81.1795 603.44 81.4706 603.634 81.4706H613.145C613.339 81.4706 613.533 81.1795 613.533 80.8398C613.533 80.5002 613.339 80.209 613.145 80.209H603.634C603.44 80.209 603.246 80.4516 603.246 80.8398Z" fill="#944B23"/>
<path d="M484.218 15.3333C484.218 15.3333 492.272 17.4684 481.743 39.8863C481.743 39.8863 475.968 61.1882 499.599 69.6313C499.599 69.6313 490.962 61.9647 500.958 43.9139C500.958 43.9139 506.15 35.6647 504.403 26.8334C504.403 26.8334 508.431 26.8334 503.433 50.4644C503.433 50.4644 498.435 66.5742 512.652 56.4328C512.652 56.4328 514.933 56.2389 515.515 50.2705C515.515 50.2705 518.766 47.7957 516.292 57.549C516.292 57.549 517.068 58.5194 511.682 67.7389C511.682 67.7389 531.625 64.6819 525.705 37.7998C525.705 37.7998 526.87 37.2174 519.543 25.5232C519.543 25.5232 517.262 23.3883 517.99 14.4114C517.99 14.4114 512.022 15.964 515.855 28.2405C515.855 28.2405 517.99 38.0911 510.469 38.8189C510.469 38.8189 517.359 33.0444 508.334 22.5148C508.334 22.5148 498.532 12.1306 502.948 4.26981L506.199 0C506.199 0 495.427 1.74669 495.621 11.3544C495.621 11.3544 495.426 21.1561 497.901 24.9895C497.901 24.9895 500.764 34.7914 494.068 36.2956C494.213 36.2471 500.91 23.5824 484.218 15.3333Z" fill="url(#paint0_linear_1145_12660)"/>
<path d="M602.615 16.6442C602.615 16.6442 594.561 18.7792 605.09 41.1972C605.09 41.1972 610.864 62.4991 587.233 70.9422C587.233 70.9422 595.871 63.2752 585.875 45.2244C585.875 45.2244 580.683 36.9756 582.43 28.1443C582.43 28.1443 578.402 28.1443 583.4 51.7753C583.4 51.7753 588.398 67.885 574.18 57.7436C574.18 57.7436 571.9 57.5494 571.318 51.581C571.318 51.581 568.066 49.1063 570.541 58.8595C570.541 58.8595 569.765 59.8302 575.151 69.0497C575.151 69.0497 555.208 65.9928 561.128 39.1107C561.128 39.1107 559.963 38.5282 567.29 26.834C567.29 26.834 569.571 24.6991 568.843 15.7222C568.843 15.7222 574.811 17.2749 570.978 29.5514C570.978 29.5514 568.843 39.4016 576.364 40.1295C576.364 40.1295 569.474 34.3552 578.499 23.8256C578.499 23.8256 588.301 13.4415 583.885 5.58065L580.634 1.31055C580.634 1.31055 591.406 3.05753 591.212 12.6652C591.212 12.6652 591.406 22.467 588.932 26.3004C588.932 26.3004 586.069 36.1022 592.765 37.6064C592.62 37.5579 585.923 24.8932 602.615 16.6442Z" fill="url(#paint1_linear_1145_12660)"/>
<path d="M476.114 90.5452C476.114 90.4482 476.114 90.3997 476.114 90.3027V62.4015C476.114 61.9648 475.775 61.625 475.338 61.625H464.08C463.644 61.625 463.304 61.9648 463.304 62.4015V90.2055C463.256 90.3026 463.256 90.4482 463.304 90.5452C463.304 90.5937 463.304 90.6907 463.352 90.7392L468.399 99.522C468.981 100.492 470.388 100.492 470.922 99.522L475.969 90.7392C476.017 90.6907 476.017 90.6423 476.017 90.5452V90.5452H476.114Z" fill="#8E5123"/>
<path d="M465.294 72.7861C465.051 72.7861 464.857 72.9801 464.857 73.2227V83.6068C464.857 83.8494 465.051 84.0434 465.294 84.0434C465.536 84.0434 465.73 83.8494 465.73 83.6068V73.2227C465.682 72.9801 465.536 72.7861 465.294 72.7861Z" fill="#40220D"/>
<path d="M467.914 71.8154C467.671 71.8154 467.477 71.9124 467.477 72.058V78.1234C467.477 78.269 467.671 78.366 467.914 78.366C468.156 78.366 468.35 78.269 468.35 78.1234V72.058C468.35 71.9609 468.156 71.8154 467.914 71.8154Z" fill="#40220D"/>
<path d="M470.874 66.7686C470.631 66.7686 470.437 66.9142 470.437 67.1083V75.5513C470.437 75.7454 470.631 75.891 470.874 75.891C471.116 75.891 471.31 75.7454 471.31 75.5513V67.1083C471.262 66.9142 471.068 66.7686 470.874 66.7686Z" fill="#40220D"/>
<path d="M470 77.6875C469.758 77.6875 469.563 77.8331 469.563 78.0272V86.4703C469.563 86.6644 469.758 86.81 470 86.81C470.243 86.81 470.437 86.6644 470.437 86.4703V78.0272C470.437 77.8331 470.243 77.6875 470 77.6875Z" fill="#40220D"/>
<path d="M473.397 74.3867C473.154 74.3867 472.96 74.5323 472.96 74.7264V83.1695C472.96 83.3636 473.154 83.5092 473.397 83.5092C473.639 83.5092 473.834 83.3636 473.834 83.1695V74.7264C473.785 74.5323 473.591 74.3867 473.397 74.3867Z" fill="#40220D"/>
<path d="M466.312 62.8389C466.07 62.8389 465.876 62.9845 465.876 63.1786V71.6216C465.876 71.8157 466.07 71.9613 466.312 71.9613C466.555 71.9613 466.749 71.8157 466.749 71.6216V63.1786C466.749 63.033 466.555 62.8389 466.312 62.8389Z" fill="#40220D"/>
<path d="M466.604 81.3262C466.361 81.3262 466.167 81.4235 466.167 81.569V87.6345C466.167 87.7801 466.361 87.877 466.604 87.877C466.846 87.877 467.04 87.7801 467.04 87.6345V81.569C467.04 81.472 466.846 81.3262 466.604 81.3262Z" fill="#40220D"/>
<path d="M471.698 82.248C471.456 82.248 471.262 82.3453 471.262 82.4909V88.5078C471.262 88.6534 471.456 88.7503 471.698 88.7503C471.941 88.7503 472.135 88.6534 472.135 88.5078V82.4909C472.135 82.3453 471.941 82.248 471.698 82.248Z" fill="#40220D"/>
<path d="M468.351 79.8701C468.108 79.8701 467.914 80.0157 467.914 80.2098V88.6529C467.914 88.847 468.108 88.9926 468.351 88.9926C468.593 88.9926 468.787 88.847 468.787 88.6529V80.2098C468.787 80.0157 468.593 79.8701 468.351 79.8701Z" fill="#40220D"/>
<path d="M472.96 63.1787C472.717 63.1787 472.523 63.3243 472.523 63.5184V71.9615C472.523 72.1556 472.717 72.3012 472.96 72.3012C473.203 72.3012 473.397 72.1556 473.397 71.9615V63.5184C473.397 63.3243 473.203 63.1787 472.96 63.1787Z" fill="#40220D"/>
<path d="M468.593 64.1973C468.351 64.1973 468.157 64.2942 468.157 64.3913V69.7773C468.157 69.8744 468.351 69.9716 468.593 69.9716C468.836 69.9716 469.03 69.8744 469.03 69.7773V64.3913C469.03 64.2942 468.836 64.1973 468.593 64.1973Z" fill="#40220D"/>
<path d="M468.35 99.6188L463.546 91.758C462.867 90.6904 463.643 89.2832 464.954 89.2832H474.513C475.774 89.2832 476.551 90.6904 475.92 91.758L471.116 99.6188C470.485 100.686 468.981 100.686 468.35 99.6188Z" fill="#B46520"/>
<path d="M628.575 91.4671C628.575 91.37 628.575 91.3216 628.575 91.2245V63.3234C628.575 62.8867 628.236 62.5469 627.799 62.5469H616.541C616.105 62.5469 615.765 62.8867 615.765 63.3234V91.1274C615.716 91.2244 615.716 91.37 615.765 91.4671C615.765 91.5156 615.765 91.6126 615.813 91.6611L620.86 100.444C621.442 101.414 622.849 101.414 623.383 100.444L628.43 91.6611C628.478 91.6126 628.478 91.5641 628.478 91.4671V91.4671H628.575Z" fill="#8E5123"/>
<path d="M617.706 73.7568C617.463 73.7568 617.269 73.9511 617.269 74.1937V84.5778C617.269 84.8204 617.463 85.0144 617.706 85.0144C617.949 85.0144 618.143 84.8204 618.143 84.5778V74.1937C618.143 73.9025 617.949 73.7568 617.706 73.7568Z" fill="#40220D"/>
<path d="M620.375 72.7861C620.132 72.7861 619.938 72.8831 619.938 73.0287V79.0942C619.938 79.2397 620.132 79.3367 620.375 79.3367C620.618 79.3367 620.812 79.2397 620.812 79.0942V73.0287C620.812 72.8831 620.618 72.7861 620.375 72.7861Z" fill="#40220D"/>
<path d="M623.286 67.6914C623.044 67.6914 622.85 67.837 622.85 68.0311V76.4742C622.85 76.6683 623.044 76.8139 623.286 76.8139C623.529 76.8139 623.723 76.6683 623.723 76.4742V68.0311C623.723 67.8855 623.529 67.6914 623.286 67.6914Z" fill="#40220D"/>
<path d="M622.461 78.6084C622.219 78.6084 622.024 78.754 622.024 78.9481V87.3912C622.024 87.5853 622.219 87.7309 622.461 87.7309C622.704 87.7309 622.898 87.5853 622.898 87.3912V78.9481C622.898 78.754 622.704 78.6084 622.461 78.6084Z" fill="#40220D"/>
<path d="M625.81 75.3086C625.567 75.3086 625.373 75.4542 625.373 75.6483V84.0914C625.373 84.2855 625.567 84.4311 625.81 84.4311C626.052 84.4311 626.246 84.2855 626.246 84.0914V75.6483C626.246 75.4542 626.052 75.3086 625.81 75.3086Z" fill="#40220D"/>
<path d="M618.773 63.8086C618.531 63.8086 618.337 63.9542 618.337 64.1483V72.5914C618.337 72.7855 618.531 72.9311 618.773 72.9311C619.016 72.9311 619.21 72.7855 619.21 72.5914V64.1483C619.21 63.9542 619.016 63.8086 618.773 63.8086Z" fill="#40220D"/>
<path d="M619.065 82.2969C618.822 82.2969 618.628 82.3939 618.628 82.5394V88.6049C618.628 88.7505 618.822 88.8477 619.065 88.8477C619.307 88.8477 619.502 88.7505 619.502 88.6049V82.5394C619.502 82.3939 619.307 82.2969 619.065 82.2969Z" fill="#40220D"/>
<path d="M624.16 83.1699C623.917 83.1699 623.723 83.2672 623.723 83.4128V89.4297C623.723 89.5752 623.917 89.6722 624.16 89.6722C624.402 89.6722 624.596 89.5752 624.596 89.4297V83.4128C624.548 83.3157 624.354 83.1699 624.16 83.1699Z" fill="#40220D"/>
<path d="M620.812 80.8408C620.569 80.8408 620.375 80.9864 620.375 81.1805V89.6236C620.375 89.8177 620.569 89.9633 620.812 89.9633C621.054 89.9633 621.248 89.8177 621.248 89.6236V81.1805C621.2 80.9864 621.054 80.8408 620.812 80.8408Z" fill="#40220D"/>
<path d="M625.421 64.1006C625.179 64.1006 624.984 64.2462 624.984 64.4403V72.8834C624.984 73.0775 625.179 73.2231 625.421 73.2231C625.664 73.2231 625.858 73.0775 625.858 72.8834V64.4403C625.809 64.2462 625.615 64.1006 625.421 64.1006Z" fill="#40220D"/>
<path d="M621.054 65.1191C620.811 65.1191 620.617 65.2161 620.617 65.3131V70.6992C620.617 70.7962 620.811 70.8935 621.054 70.8935C621.297 70.8935 621.491 70.7962 621.491 70.6992V65.3131C621.442 65.2161 621.297 65.1191 621.054 65.1191Z" fill="#40220D"/>
<path d="M620.811 100.589L616.008 92.7287C615.328 91.6611 616.105 90.2539 617.415 90.2539H626.974C628.236 90.2539 629.012 91.6611 628.381 92.7287L623.577 100.589C622.947 101.608 621.442 101.608 620.811 100.589Z" fill="#B46520"/>
<path d="M545.503 93.2139C545.503 93.2139 493.049 100.298 487.226 186.088L539.68 208.7C539.729 208.7 532.208 142.077 545.503 93.2139Z" fill="#5FB630"/>
<path d="M545.212 93.165C545.212 93.165 545.212 93.1651 544.824 94.4267C542.349 102.773 533.324 139.457 539.632 209.331L611.835 186.428C611.835 186.428 603.78 103.404 545.212 93.165Z" fill="#74321C"/>
<path d="M526.579 115.243C522.988 113.885 519.688 115.098 518.281 117.475C518.184 117.669 518.039 117.912 517.99 118.009L510.323 129.655L530.315 138.826L531.48 121.843V121.794C531.916 119.271 529.878 116.456 526.579 115.243Z" fill="white"/>
<path d="M747.604 20.4764C746.682 15.5755 742.946 16.6432 742.946 16.6432C737.269 7.47218 730.427 10.9657 730.427 10.9657L728.971 9.55859L725.962 12.6156L722.954 15.6726L724.41 17.0797C724.41 17.0797 721.062 23.97 730.281 29.4532C730.281 29.4532 729.262 33.1896 734.163 34.063C734.163 34.063 735.036 38.4302 738.627 38.4302C738.627 38.4302 741.539 42.6032 744.305 44.3986C746.197 46.2425 750.807 44.5926 754.592 40.7593C758.376 36.9259 759.929 32.2676 758.037 30.3751C757.988 30.3266 757.94 30.3268 757.94 30.2783C756.096 27.6095 751.971 24.8437 751.971 24.8437C752.02 21.2529 747.604 20.4764 747.604 20.4764Z" fill="#C7E8F6"/>
<path d="M744.838 19.1178C744.741 19.2148 744.693 19.3116 744.644 19.4572C738.094 28.1914 734.6 29.9868 733.387 30.375C733.047 29.8412 732.902 29.1136 733.193 28.1431C733.193 28.1431 733.726 25.8623 731.64 26.7357C731.64 26.7357 729.214 32.3645 735.279 33.432L736.686 33.4806C736.686 33.4806 738.288 32.5585 736.832 31.8792C736.832 31.8792 735.716 31.8794 734.697 31.4427L735.328 31.297C741.345 27.5606 745.955 20.4763 745.955 20.4763L745.906 20.4277C745.954 20.3792 746.003 20.3794 746.003 20.3309C746.343 19.9912 746.391 19.4089 746.052 19.1178C745.712 18.8266 745.178 18.7781 744.838 19.1178Z" fill="white"/>
<path d="M748.623 22.611C748.526 22.7081 748.478 22.8051 748.429 22.9507C742.121 31.3453 738.821 32.9467 737.463 33.6746C737.172 33.7716 736.978 33.82 736.832 33.8685C736.347 34.0626 736.104 34.4995 736.25 34.8876C736.395 35.2758 736.783 35.4212 737.269 35.2756C737.414 35.2271 737.511 35.1787 737.657 35.0816L737.754 34.9845L739.355 33.9657C745.372 30.2294 749.739 23.8727 749.739 23.8727L749.836 23.7755C749.885 23.727 749.788 23.8241 749.836 23.7755C750.079 23.5329 750.176 22.8536 749.836 22.5624C749.545 22.2228 749.011 22.2228 748.623 22.611Z" fill="white"/>
<path d="M752.262 26.7846C752.165 26.8817 752.117 26.9788 752.068 27.1243C745.76 35.5189 742.461 37.1203 741.102 37.8482C740.811 37.9452 740.617 37.9936 740.471 38.0422C739.986 38.2362 739.743 38.6731 739.889 39.0613C740.034 39.4494 740.423 39.5948 740.908 39.4492C741.053 39.4007 741.15 39.3523 741.296 39.2552L741.393 39.1581L742.994 38.1393C749.011 34.403 753.378 28.0463 753.378 28.0463L753.475 27.9491C753.524 27.9006 753.427 27.9977 753.475 27.9491C753.718 27.7065 753.815 27.0272 753.475 26.7361C753.136 26.4449 752.602 26.445 752.262 26.7846Z" fill="white"/>
<path d="M738.093 23.631C739.085 23.631 739.889 22.8272 739.889 21.8357C739.889 20.8441 739.085 20.04 738.093 20.04C737.102 20.04 736.298 20.8441 736.298 21.8357C736.298 22.8272 737.102 23.631 738.093 23.631Z" fill="white"/>
<path d="M736.735 26.9315C737.431 26.9315 737.996 26.3666 737.996 25.6699C737.996 24.9731 737.431 24.4082 736.735 24.4082C736.038 24.4082 735.473 24.9731 735.473 25.6699C735.473 26.3666 736.038 26.9315 736.735 26.9315Z" fill="white"/>
<path d="M740.714 30.1816C741.357 30.1816 741.878 29.6602 741.878 29.0171C741.878 28.3739 741.357 27.8525 740.714 27.8525C740.071 27.8525 739.549 28.3739 739.549 29.0171C739.549 29.6602 740.071 30.1816 740.714 30.1816Z" fill="white"/>
<path d="M743.091 28.2408C743.493 28.2408 743.819 27.9151 743.819 27.5131C743.819 27.1111 743.493 26.7852 743.091 26.7852C742.689 26.7852 742.363 27.1111 742.363 27.5131C742.363 27.9151 742.689 28.2408 743.091 28.2408Z" fill="white"/>
<path d="M743.771 32.6079C744.092 32.6079 744.353 32.3472 744.353 32.0256C744.353 31.704 744.092 31.4434 743.771 31.4434C743.449 31.4434 743.189 31.704 743.189 32.0256C743.189 32.3472 743.449 32.6079 743.771 32.6079Z" fill="white"/>
<path d="M746.1 31.2974C746.502 31.2974 746.828 30.9718 746.828 30.5698C746.828 30.1678 746.502 29.8418 746.1 29.8418C745.698 29.8418 745.372 30.1678 745.372 30.5698C745.372 30.9718 745.698 31.2974 746.1 31.2974Z" fill="white"/>
<path d="M745.857 33.4809C746.179 33.4809 746.439 33.2203 746.439 32.8987C746.439 32.5771 746.179 32.3164 745.857 32.3164C745.535 32.3164 745.275 32.5771 745.275 32.8987C745.275 33.2203 745.535 33.4809 745.857 33.4809Z" fill="white"/>
<path d="M728.802 9.5501L722.955 15.5059L724.479 17.0015L730.325 11.0457L728.802 9.5501Z" fill="white"/>
<path d="M729.117 7.5696C728.68 7.03584 728.049 7.32674 728.049 7.32674L725.574 4.80371C723.391 4.90076 720.916 7.61787 720.916 7.61787C720.916 7.61787 718.247 10.1413 718.15 12.3248L720.722 14.751C720.722 14.751 720.431 15.3817 720.964 15.8184C721.013 15.8669 721.013 15.9155 721.062 15.9155C721.401 16.2552 721.886 16.3036 722.323 16.1095C722.711 16.0125 723.827 15.5273 726.302 12.8585C728.922 10.3353 729.408 9.21915 729.456 8.83096C729.65 8.39425 729.553 7.90926 729.214 7.5696C729.214 7.61812 729.165 7.61812 729.117 7.5696Z" fill="#9AAC87"/>
<path d="M696.509 50.9013L701.216 63.129C701.216 63.129 754.786 48.0867 792.343 63.129C792.343 63.129 806.415 68.7579 800.786 87.5366L823.35 92.2432C823.35 92.2432 835.578 51.8231 786.714 46.1943L696.509 50.9013Z" fill="#DBE0D8"/>
<path d="M717.18 129.218L730.038 142.999C730.038 142.999 712.182 163.67 692.141 174.636L679.283 159.933C679.283 159.885 708.882 147.705 717.18 129.218Z" fill="#DBE0D8"/>
<path d="M728.923 153.334L741.781 167.115C741.781 167.115 723.925 187.786 703.884 198.752L691.026 184.05C691.026 184.001 720.625 171.822 728.923 153.334Z" fill="#DBE0D8"/>
<path d="M737.22 121.358C737.22 121.358 751.001 112.284 758.813 121.358C758.813 121.358 773.516 196.861 745.954 200.597C745.954 200.597 740.325 199.966 733.095 188.078L741.732 187.447C741.732 187.447 753.184 152.365 743.14 132.324L736.541 131.063L737.22 121.358Z" fill="#DBE0D8"/>
<path d="M774.147 155.179L768.809 173.327C768.809 173.327 796.37 193.367 809.86 184.924L816.459 165.175C816.459 165.223 789.189 169.59 774.147 155.179Z" fill="#9AAC87"/>
<path d="M694.471 21.8838C694.471 21.8838 658.175 33.4811 655.215 66.9625C655.215 66.9625 656.719 80.1122 649.635 92.2431C649.635 92.2431 696.218 65.2154 692.821 25.5231C692.821 25.5231 693.355 23.1939 694.471 21.8838Z" fill="#40AF36"/>
<path d="M686.755 43.6709C686.755 43.6709 668.801 47.1161 664.968 65.5065C664.968 65.5065 666.181 73.2703 643.375 97.0469L646.966 100.783C646.966 100.783 665.405 73.3672 667.006 67.7384C667.006 67.6899 665.599 55.8018 686.755 43.6709Z" fill="#14502A"/>
<path d="M79.6758 54.881V40.3239H79.6273C79.6273 37.1213 76.6673 34.501 72.9795 34.501C69.2917 34.501 66.3318 37.1213 66.3318 40.3239H66.2833V61.189H66.3318C66.5744 64.1975 69.4373 66.5751 72.931 66.5751H94.8636V54.881H79.6758Z" fill="#74321C"/>
<path d="M126.938 54.881V40.3239H126.986C126.986 37.1213 129.946 34.501 133.634 34.501C137.273 34.501 140.282 37.1213 140.282 40.3239H140.33V61.189H140.282C140.039 64.1975 137.176 66.5751 133.683 66.5751H111.75V54.881H126.938Z" fill="#74321C"/>
<path d="M79.6758 89.6719V104.229H79.6273C79.6273 107.432 76.6673 110.052 72.9795 110.052C69.2917 110.052 66.3318 107.432 66.3318 104.229H66.2833V83.3639H66.3318C66.5744 80.3554 69.4373 77.9775 72.931 77.9775H94.8636V89.6719H79.6758Z" fill="#74321C"/>
<path d="M126.938 89.6719V104.229H126.986C126.986 107.432 129.946 110.052 133.634 110.052C137.273 110.052 140.282 107.432 140.282 104.229H140.33V83.3639H140.282C140.039 80.3554 137.176 77.9775 133.683 77.9775H111.75V89.6719H126.938Z" fill="#74321C"/>
<path d="M109.421 41.0508C109.421 41.0023 109.421 41.0023 109.421 41.0023C109.421 37.4115 106.655 34.5488 103.258 34.5488C99.8617 34.5488 97.0959 37.46 97.0959 41.0023C97.0959 41.0508 97.0959 41.0508 97.0959 41.0508V103.598C97.0959 107.189 99.8617 110.052 103.258 110.052C106.655 110.052 109.421 107.14 109.421 103.598V41.0508Z" fill="#74321C"/>
<path d="M47.6017 172.938C73.8914 172.938 95.2034 158.404 95.2034 140.476C95.2034 122.548 73.8914 108.014 47.6017 108.014C21.312 108.014 0 122.548 0 140.476C0 158.404 21.312 172.938 47.6017 172.938Z" fill="#5FB630"/>
<path d="M23.9706 152.413V137.856H23.922C23.922 134.654 20.9621 132.033 17.2743 132.033C13.5865 132.033 10.6266 134.654 10.6266 137.856H10.578V158.721H10.6266C10.8692 161.73 13.7321 164.107 17.2258 164.107H39.1585V152.413H23.9706Z" fill="#74321C"/>
<path d="M71.2325 152.413V137.856H71.281C71.281 134.654 74.241 132.033 77.9288 132.033C81.6166 132.033 84.5765 134.654 84.5765 137.856H84.6251V158.721H84.5765C84.3339 161.73 81.471 164.107 77.9773 164.107H56.0446V152.413H71.2325Z" fill="#74321C"/>
<path d="M23.9706 187.204V201.761H23.922C23.922 204.964 20.9621 207.584 17.2743 207.584C13.5865 207.584 10.6266 204.964 10.6266 201.761H10.578V180.896H10.6266C10.8692 177.887 13.7321 175.51 17.2258 175.51H39.1585V187.204H23.9706Z" fill="#74321C"/>
<path d="M71.2325 187.204V201.761H71.281C71.281 204.964 74.241 207.584 77.9288 207.584C81.6166 207.584 84.5765 204.964 84.5765 201.761H84.6251V180.896H84.5765C84.3339 177.887 81.471 175.51 77.9773 175.51H56.0446V187.204H71.2325Z" fill="#74321C"/>
<path d="M53.7639 138.536C53.7639 138.487 53.7639 138.487 53.7639 138.487C53.7639 134.896 50.9981 132.033 47.6014 132.033C44.2047 132.033 41.4389 134.945 41.4389 138.487C41.4389 138.535 41.4389 138.536 41.4389 138.536V201.083C41.4389 204.673 44.2047 207.536 47.6014 207.536C50.9981 207.536 53.7639 204.625 53.7639 201.083V138.536Z" fill="#74321C"/>
<path d="M161.778 172.744C188.068 172.744 209.38 158.21 209.38 140.282C209.38 122.353 188.068 107.819 161.778 107.819C135.488 107.819 114.176 122.353 114.176 140.282C114.176 158.21 135.488 172.744 161.778 172.744Z" fill="#5FB630"/>
<path d="M138.146 152.219V137.662H138.098C138.098 134.459 135.138 131.839 131.45 131.839C127.811 131.839 124.802 134.459 124.802 137.662H124.754V158.527H124.802C125.045 161.535 127.908 163.913 131.402 163.913H153.334V152.219H138.146Z" fill="#74321C"/>
<path d="M185.409 152.219V137.662H185.457C185.457 134.459 188.417 131.839 192.105 131.839C195.793 131.839 198.753 134.459 198.753 137.662H198.801V158.527H198.753C198.51 161.535 195.647 163.913 192.154 163.913H170.221V152.219H185.409Z" fill="#74321C"/>
<path d="M138.146 187.01V201.567H138.098C138.098 204.769 135.138 207.39 131.45 207.39C127.811 207.39 124.802 204.769 124.802 201.567H124.754V180.702H124.802C125.045 177.693 127.908 175.315 131.402 175.315H153.334V187.01H138.146Z" fill="#74321C"/>
<path d="M185.409 187.01V201.567H185.457C185.457 204.769 188.417 207.39 192.105 207.39C195.793 207.39 198.753 204.769 198.753 201.567H198.801V180.702H198.753C198.51 177.693 195.647 175.315 192.154 175.315H170.221V187.01H185.409Z" fill="#74321C"/>
<path d="M167.94 138.389C167.94 138.34 167.94 138.34 167.94 138.34C167.94 134.749 165.174 131.887 161.778 131.887C158.381 131.887 155.615 134.798 155.615 138.34C155.615 138.389 155.615 138.389 155.615 138.389V200.936C155.615 204.527 158.381 207.39 161.778 207.39C165.174 207.39 167.94 204.478 167.94 200.936V138.389Z" fill="#74321C"/>
<path d="M549.919 203.12L604.993 185.942C604.993 185.942 603.052 158.187 581.508 138.292C581.508 138.292 576.995 134.168 570.638 130.723L566.368 128.539C566.417 128.539 543.902 142.271 549.919 203.12Z" fill="white"/>
<path d="M780.746 77.2012H702.138V98.5031H780.746V77.2012Z" fill="#DBE0D8"/>
<path d="M777.64 146.056V149.016H773.322C773.322 149.016 767.208 147.706 769.294 141.834L773.127 135.283L771.817 134.459L777.058 131.45V137.419L775.699 136.642L772.011 143.241C772.011 143.241 771.138 145.182 773.467 146.007L777.64 146.056Z" fill="#BA5D2E"/>
<path d="M779.096 130.431L776.524 128.927L778.708 125.19C778.708 125.19 782.929 120.532 786.908 125.287L790.645 131.887L792.003 131.159V137.176L786.86 134.216L788.218 133.44L784.337 126.937C784.337 126.937 783.123 125.19 781.231 126.792L779.096 130.431Z" fill="#BA5D2E"/>
<path d="M791.809 139.7L794.381 138.195L796.565 141.932C796.565 141.932 798.505 147.9 792.44 149.016H784.822L784.773 150.569L779.533 147.609L784.676 144.6V146.153L792.246 146.008C792.246 146.008 794.332 145.814 793.896 143.387L791.809 139.7Z" fill="#BA5D2E"/>
<defs>
<linearGradient id="paint0_linear_1145_12660" x1="503.991" y1="48.544" x2="503.032" y2="2.86338" gradientUnits="userSpaceOnUse">
<stop stop-color="#B3312D"/>
<stop offset="0.6607" stop-color="#DC7F2D"/>
</linearGradient>
<linearGradient id="paint1_linear_1145_12660" x1="582.84" y1="49.8625" x2="583.799" y2="4.1817" gradientUnits="userSpaceOnUse">
<stop stop-color="#B3312D"/>
<stop offset="0.6607" stop-color="#DC7F2D"/>
</linearGradient>
</defs>
</svg>
